<?xml version="1.0" encoding="UTF-8"?>
<svg version="1.1" xmlns="http://www.w3.org/2000/svg" width="512" height="480">
<path d="M0 0 C0.94230469 -0.03287109 1.88460937 -0.06574219 2.85546875 -0.09960938 C7.30387161 -0.13392384 10.71988806 -0.12215413 14.3359375 2.6640625 C16.70618429 5.38716156 17.60195021 6.7455664 18.125 10.25 C18.32222656 11.43529297 18.32222656 11.43529297 18.5234375 12.64453125 C18.59820312 13.23621094 18.67296875 13.82789063 18.75 14.4375 C19.265625 13.57125 19.78125 12.705 20.3125 11.8125 C23.90073249 6.44287549 28.57331178 2.42939058 34.75 0.4375 C42.08622709 -0.43272832 48.74455898 -0.16041578 54.75 4.4375 C58.18995858 7.74692444 60.72141954 11.11491735 62.75 15.4375 C62.81058594 14.43847656 62.87117188 13.43945312 62.93359375 12.41015625 C63.05927734 10.47462891 63.05927734 10.47462891 63.1875 8.5 C63.30931641 6.56833984 63.30931641 6.56833984 63.43359375 4.59765625 C63.75 1.4375 63.75 1.4375 64.75 0.4375 C68.05102539 0.00585938 68.05102539 0.00585938 71.75 0.4375 C74.01342773 2.91601562 74.01342773 2.91601562 75.93359375 6.34375 C76.45144188 7.24268982 76.45144188 7.24268982 76.97975159 8.15979004 C78.0741841 10.07264622 79.13068609 12.00365312 80.1875 13.9375 C80.92402363 15.23964659 81.66293088 16.54044802 82.40429688 17.83984375 C84.21918846 21.02250917 85.98131906 24.22712114 87.75 27.4375 C88.08 18.5275 88.41 9.6175 88.75 0.4375 C90.73 0.4375 92.71 0.4375 94.75 0.4375 C97.69192784 3.37942784 97.10537397 6.55940973 97.1640625 10.5078125 C97.18342865 11.30404022 97.2027948 12.10026794 97.2227478 12.92062378 C97.28260474 15.46780634 97.32895279 18.01503395 97.375 20.5625 C97.41317421 22.2877803 97.45222561 24.01304143 97.4921875 25.73828125 C97.58831109 29.97119876 97.67231908 34.20420549 97.75 38.4375 C98.07798584 37.32189697 98.40597168 36.20629395 98.74389648 35.05688477 C99.95760625 30.93173607 101.1755392 26.80784452 102.39477539 22.68432617 C102.92262865 20.89690807 103.44932435 19.10914772 103.97485352 17.32104492 C104.72891559 14.75609674 105.48708466 12.19239422 106.24609375 9.62890625 C106.48154404 8.8247377 106.71699432 8.02056915 106.95957947 7.19203186 C108.63612829 1.55137171 108.63612829 1.55137171 109.75 0.4375 C111.26928038 0.36570036 112.79167482 0.35357993 114.3125 0.375 C115.13878906 0.38402344 115.96507812 0.39304688 116.81640625 0.40234375 C117.45449219 0.41394531 118.09257812 0.42554688 118.75 0.4375 C120.90169278 6.00593729 122.77048572 11.58538035 124.44921875 17.3125 C124.6891304 18.12243408 124.92904205 18.93236816 125.17622375 19.7668457 C125.93269733 22.3229374 126.68516483 24.88018756 127.4375 27.4375 C127.95351028 29.18367231 128.46978387 30.92976683 128.98632812 32.67578125 C130.2439289 36.92879498 131.49794135 41.18285157 132.75 45.4375 C131.75 46.4375 131.75 46.4375 128.8125 46.625 C125.75 46.4375 125.75 46.4375 123.75 44.4375 C123.09 42.1275 122.43 39.8175 121.75 37.4375 C116.8 37.4375 111.85 37.4375 106.75 37.4375 C105.43 40.4075 104.11 43.3775 102.75 46.4375 C91.53215482 47.78563866 91.53215482 47.78563866 87.9375 45.06640625 C86.32899815 42.61056861 85.07020601 40.0618901 83.75 37.4375 C82.38016783 35.13857762 80.97362035 32.86496097 79.55957031 30.59301758 C77.2645219 26.89000686 75.01167434 23.16098825 72.75 19.4375 C72.42 28.0175 72.09 36.5975 71.75 45.4375 C66.75 46.4375 66.75 46.4375 63.75 44.4375 C63.23828125 41.3984375 63.23828125 41.3984375 63.0625 37.8125 C62.99675781 36.62398437 62.93101562 35.43546875 62.86328125 34.2109375 C62.80720703 32.83808594 62.80720703 32.83808594 62.75 31.4375 C62.4096875 32.02917969 62.069375 32.62085938 61.71875 33.23046875 C57.91032112 39.43942329 53.87895878 43.8968244 46.734375 46.04296875 C39.41495239 47.49820828 33.15797525 46.17809043 26.75 42.4375 C20.54374569 36.96273791 17.88526738 31.57358291 16.75 23.4375 C15.1 24.7575 13.45 26.0775 11.75 27.4375 C12.3996875 29.11779297 12.3996875 29.11779297 13.0625 30.83203125 C13.62526053 32.30458796 14.18774624 33.77724972 14.75 35.25 C15.03617188 35.98798828 15.32234375 36.72597656 15.6171875 37.48632812 C15.88789063 38.19853516 16.15859375 38.91074219 16.4375 39.64453125 C16.68886719 40.2991333 16.94023437 40.95373535 17.19921875 41.62817383 C17.75 43.4375 17.75 43.4375 17.75 46.4375 C14.5 46.4375 14.5 46.4375 10.75 45.4375 C8.79942027 43.03533912 7.83614827 40.3136952 6.75 37.4375 C6.37746094 36.52871094 6.00492188 35.61992187 5.62109375 34.68359375 C4.63869159 32.27722191 3.68435469 29.86284622 2.75 27.4375 C0.44 27.1075 -1.87 26.7775 -4.25 26.4375 C-4.24476318 27.00782959 -4.23952637 27.57815918 -4.23413086 28.16577148 C-4.21341779 30.73550323 -4.2003581 33.30521747 -4.1875 35.875 C-4.17912109 36.77283203 -4.17074219 37.67066406 -4.16210938 38.59570312 C-4.15888672 39.44970703 -4.15566406 40.30371094 -4.15234375 41.18359375 C-4.14710693 41.97435303 -4.14187012 42.7651123 -4.13647461 43.57983398 C-4.25 45.4375 -4.25 45.4375 -5.25 46.4375 C-8.25 46.5625 -8.25 46.5625 -11.25 46.4375 C-12.7773211 44.9101789 -12.38452391 43.53745977 -12.39526367 41.40844727 C-12.40164352 40.55408585 -12.40802338 39.69972443 -12.41459656 38.81947327 C-12.41570938 37.89033615 -12.4168222 36.96119904 -12.41796875 36.00390625 C-12.42129715 35.05563461 -12.42462555 34.10736298 -12.42805481 33.13035583 C-12.43312819 31.12035611 -12.43546301 29.11034792 -12.43530273 27.1003418 C-12.43748822 24.01662381 -12.45563683 20.93326394 -12.47460938 17.84960938 C-12.47754334 15.9010429 -12.47952812 13.95247471 -12.48046875 12.00390625 C-12.48765427 11.07679337 -12.49483978 10.14968048 -12.50224304 9.19447327 C-12.49916641 8.33695969 -12.49608978 7.47944611 -12.49291992 6.59594727 C-12.49434494 5.83951431 -12.49576996 5.08308136 -12.49723816 4.3037262 C-11.71899813 -1.57065798 -4.42457424 0.02679756 0 0 Z M-4.25 7.4375 C-4.25 11.3975 -4.25 15.3575 -4.25 19.4375 C-2.331875 19.499375 -0.41375 19.56125 1.5625 19.625 C2.64144531 19.65980469 3.72039062 19.69460937 4.83203125 19.73046875 C7.73040344 19.68117314 7.73040344 19.68117314 9.62109375 18.1171875 C11.33514398 15.56687055 11.00448311 13.42767651 10.75 10.4375 C10.42 9.7775 10.09 9.1175 9.75 8.4375 C6.60069107 7.38773036 4.36185544 7.33618405 1.0625 7.375 C-0.690625 7.395625 -2.44375 7.41625 -4.25 7.4375 Z M39.75 8.4375 C40.41 10.7475 41.07 13.0575 41.75 15.4375 C42.08 15.4375 42.41 15.4375 42.75 15.4375 C42.75 13.4575 42.75 11.4775 42.75 9.4375 C41.76 9.1075 40.77 8.7775 39.75 8.4375 Z M34.75 9.4375 C36.0589572 12.55947478 36.0589572 12.55947478 38.75 14.4375 C38.42 12.7875 38.09 11.1375 37.75 9.4375 C36.76 9.4375 35.77 9.4375 34.75 9.4375 Z M113.75 9.4375 C112.1 15.7075 110.45 21.9775 108.75 28.4375 C112.38 28.4375 116.01 28.4375 119.75 28.4375 C118.1 22.1675 116.45 15.8975 114.75 9.4375 C114.42 9.4375 114.09 9.4375 113.75 9.4375 Z M45.75 10.4375 C45.42 12.7475 45.09 15.0575 44.75 17.4375 C46.64213369 15.05176621 47.77391783 13.36574652 48.75 10.4375 C47.76 10.4375 46.77 10.4375 45.75 10.4375 Z M31.75 11.4375 C30.76 12.9225 30.76 12.9225 29.75 14.4375 C32.225 14.9325 32.225 14.9325 34.75 15.4375 C34.75 14.7775 34.75 14.1175 34.75 13.4375 C34.09 13.4375 33.43 13.4375 32.75 13.4375 C32.42 12.7775 32.09 12.1175 31.75 11.4375 Z M49.75 12.4375 C49.09 14.4175 48.43 16.3975 47.75 18.4375 C49.4 17.1175 51.05 15.7975 52.75 14.4375 C51.76 13.7775 50.77 13.1175 49.75 12.4375 Z M38.75 14.4375 C39.75 16.4375 39.75 16.4375 39.75 16.4375 Z M27.75 15.4375 C27.42 16.7575 27.09 18.0775 26.75 19.4375 C28.73 19.1075 30.71 18.7775 32.75 18.4375 C30.48675716 16.35890082 30.48675716 16.35890082 27.75 15.4375 Z M70.75 15.4375 C71.75 17.4375 71.75 17.4375 71.75 17.4375 Z M52.75 16.4375 C51.43 18.0875 50.11 19.7375 48.75 21.4375 C50.73 21.1075 52.71 20.7775 54.75 20.4375 C54.09 19.1175 53.43 17.7975 52.75 16.4375 Z M26.75 21.4375 C26.75 22.4275 26.75 23.4175 26.75 24.4375 C29.06 23.7775 31.37 23.1175 33.75 22.4375 C33.75 22.1075 33.75 21.7775 33.75 21.4375 C31.44 21.4375 29.13 21.4375 26.75 21.4375 Z M53.75 22.4375 C51.77 23.0975 49.79 23.7575 47.75 24.4375 C47.75 24.7675 47.75 25.0975 47.75 25.4375 C50.06 25.4375 52.37 25.4375 54.75 25.4375 C54.42 24.4475 54.09 23.4575 53.75 22.4375 Z M26.75 26.4375 C27.08 27.4275 27.41 28.4175 27.75 29.4375 C28.74 28.4475 29.73 27.4575 30.75 26.4375 C29.43 26.4375 28.11 26.4375 26.75 26.4375 Z M46.75 27.4375 C49.10953094 29.79703094 50.52895617 29.92891413 53.75 30.4375 C53.42 29.4475 53.09 28.4575 52.75 27.4375 C50.77 27.4375 48.79 27.4375 46.75 27.4375 Z M30.1875 30.9375 C29.713125 31.4325 29.23875 31.9275 28.75 32.4375 C29.74 32.7675 30.73 33.0975 31.75 33.4375 C32.08 32.1175 32.41 30.7975 32.75 29.4375 C31.50923698 29.32207803 31.50923698 29.32207803 30.1875 30.9375 Z M35.75 29.4375 C35.09 31.7475 34.43 34.0575 33.75 36.4375 C34.41 36.4375 35.07 36.4375 35.75 36.4375 C36.08 34.1275 36.41 31.8175 36.75 29.4375 C36.42 29.4375 36.09 29.4375 35.75 29.4375 Z M38.75 30.4375 C38.75 32.7475 38.75 35.0575 38.75 37.4375 C39.74 37.1075 40.73 36.7775 41.75 36.4375 C41.09 34.4575 40.43 32.4775 39.75 30.4375 C39.42 30.4375 39.09 30.4375 38.75 30.4375 Z M45.75 30.4375 C47.07 31.7575 48.39 33.0775 49.75 34.4375 C50.41 33.7775 51.07 33.1175 51.75 32.4375 C49.77 31.7775 47.79 31.1175 45.75 30.4375 Z M42.75 31.4375 C43.08 33.4175 43.41 35.3975 43.75 37.4375 C45.07 36.7775 46.39 36.1175 47.75 35.4375 C46.1 34.1175 44.45 32.7975 42.75 31.4375 Z " fill="#4EBDF2" transform="translate(192.25,208.5625)"/>
<path d="M0 0 C5.67256681 3.10514338 10.91545662 6.63596214 16.1875 10.375 C17.97259907 11.63289365 19.75775697 12.89070382 21.54296875 14.1484375 C22.44966309 14.7887793 23.35635742 15.42912109 24.29052734 16.08886719 C28.5186638 19.07119303 32.75955672 22.03521222 37 25 C42.13142377 28.59017267 47.26123337 32.18260321 52.38671875 35.78125 C53.27423828 36.40386719 54.16175781 37.02648437 55.07617188 37.66796875 C56.75645575 38.84680665 58.43618836 40.02643091 60.11523438 41.20703125 C60.88544922 41.74714844 61.65566406 42.28726563 62.44921875 42.84375 C63.1966333 43.39015137 63.94404785 43.93655273 64.71411133 44.49951172 C66.9519702 46.07578047 66.9519702 46.07578047 69.49487305 47.00439453 C72.50249182 48.35967767 73.98727861 49.3514142 76 52 C78.04260609 58.69283426 78.05836388 65.93675101 78.4375 72.875 C78.63230141 75.74898458 78.83897872 78.62184627 79.05030823 81.49465942 C79.17731042 83.27692653 79.29271287 85.06007277 79.39439392 86.84396362 C80.0003133 96.619383 81.75713828 104.36984484 89.375 111.125 C90.91342999 112.42051999 92.45568946 113.7114955 94 115 C95.142129 115.97741194 96.28263097 116.95672694 97.421875 117.9375 C99.82347918 120.00500109 102.22575777 122.07165744 104.6328125 124.1328125 C105.19000977 124.61137695 105.74720703 125.08994141 106.32128906 125.58300781 C107.4559814 126.5407964 108.60433352 127.48259727 109.76464844 128.40917969 C111.20953838 129.56593909 112.60942128 130.7784886 114 132 C114 132.66 114 133.32 114 134 C102.95595052 133.46561051 95.54777884 128.65688772 86.87109375 122.109375 C83.88488312 119.91542433 80.81110766 117.92981341 77.6875 115.9375 C66.96004239 108.71629313 66.96004239 108.71629313 65.2734375 102.1875 C64.68542029 98.46631646 64.30669528 94.75226378 64 91 C63.77246369 88.31938601 63.54196791 85.63915733 63.30371094 82.95947266 C63.14685019 81.1568442 63.00229268 79.35308825 62.87207031 77.54833984 C62.31729146 70.8258007 61.64382725 63.86662168 56.9140625 58.73828125 C52.84360568 56.31019374 48.64738648 54.23452005 44.375 52.1875 C36.94605776 48.54330266 29.73005123 44.85407876 23 40 C22.30132812 39.50757813 21.60265625 39.01515625 20.8828125 38.5078125 C9.83355897 29.86617842 3.94931677 16.08695165 0 3 C0 2.01 0 1.02 0 0 Z " fill="#03205B" transform="translate(28,149)"/>
<path d="M0 0 C3.69897461 0.43164062 3.69897461 0.43164062 5.96240234 2.91015625 C6.59605713 4.04130859 7.22971191 5.17246094 7.88256836 6.33789062 C8.40041649 7.23683044 8.40041649 7.23683044 8.9287262 8.15393066 C10.02315871 10.06678684 11.0796607 11.99779375 12.13647461 13.93164062 C12.87299824 15.23378721 13.61190549 16.53458865 14.35327148 17.83398438 C16.16816307 21.01664979 17.93029366 24.22126177 19.69897461 27.43164062 C20.02897461 18.52164063 20.35897461 9.61164063 20.69897461 0.43164062 C22.67897461 0.43164062 24.65897461 0.43164062 26.69897461 0.43164062 C29.64090245 3.37356847 29.05434858 6.55355036 29.11303711 10.50195312 C29.13240326 11.29818085 29.15176941 12.09440857 29.17172241 12.9147644 C29.23157934 15.46194697 29.2779274 18.00917458 29.32397461 20.55664062 C29.36214882 22.28192093 29.40120022 24.00718206 29.44116211 25.73242188 C29.5372857 29.96533938 29.62129369 34.19834612 29.69897461 38.43164062 C30.02696045 37.3160376 30.35494629 36.20043457 30.69287109 35.05102539 C31.90658086 30.9258767 33.12451381 26.80198514 34.34375 22.6784668 C34.87160326 20.8910487 35.39829896 19.10328834 35.92382812 17.31518555 C36.6778902 14.75023737 37.43605927 12.18653485 38.19506836 9.62304688 C38.43051865 8.81887833 38.66596893 8.01470978 38.90855408 7.18617249 C40.5851029 1.54551233 40.5851029 1.54551233 41.69897461 0.43164062 C43.21825499 0.35984099 44.74064943 0.34772055 46.26147461 0.36914062 C47.08776367 0.37816406 47.91405273 0.3871875 48.76538086 0.39648438 C49.4034668 0.40808594 50.04155273 0.4196875 50.69897461 0.43164062 C52.85066739 6.00007791 54.71946032 11.57952098 56.39819336 17.30664062 C56.75806084 18.52154175 56.75806084 18.52154175 57.12519836 19.76098633 C57.88167194 22.31707803 58.63413944 24.87432819 59.38647461 27.43164062 C59.90248489 29.17781293 60.41875848 30.92390745 60.93530273 32.66992188 C62.19290351 36.9229356 63.44691596 41.17699219 64.69897461 45.43164062 C63.69897461 46.43164062 63.69897461 46.43164062 60.76147461 46.61914062 C57.69897461 46.43164062 57.69897461 46.43164062 55.69897461 44.43164062 C55.03897461 42.12164062 54.37897461 39.81164062 53.69897461 37.43164062 C48.74897461 37.43164062 43.79897461 37.43164062 38.69897461 37.43164062 C37.37897461 40.40164062 36.05897461 43.37164062 34.69897461 46.43164062 C23.48112943 47.77977929 23.48112943 47.77977929 19.88647461 45.06054688 C18.27797276 42.60470924 17.01918062 40.05603073 15.69897461 37.43164062 C14.32914244 35.13271825 12.92259496 32.85910159 11.50854492 30.5871582 C9.21349651 26.88414748 6.96064895 23.15512887 4.69897461 19.43164062 C4.36897461 28.01164062 4.03897461 36.59164062 3.69897461 45.43164062 C-1.30102539 46.43164062 -1.30102539 46.43164062 -4.30102539 44.43164062 C-4.74926758 42.1953125 -4.74926758 42.1953125 -4.84790039 39.40039062 C-4.88866699 38.36978516 -4.92943359 37.33917969 -4.97143555 36.27734375 C-4.9977002 35.17326172 -5.02396484 34.06917969 -5.05102539 32.93164062 C-5.08631348 31.81208984 -5.12160156 30.69253906 -5.15795898 29.5390625 C-5.40034997 20.15946895 -5.34072056 10.76579282 -4.30102539 1.43164062 C-3.30102539 0.43164062 -3.30102539 0.43164062 0 0 Z M45.69897461 9.43164062 C44.04897461 15.70164063 42.39897461 21.97164062 40.69897461 28.43164062 C44.32897461 28.43164062 47.95897461 28.43164062 51.69897461 28.43164062 C50.04897461 22.16164062 48.39897461 15.89164063 46.69897461 9.43164062 C46.36897461 9.43164062 46.03897461 9.43164062 45.69897461 9.43164062 Z M2.69897461 15.43164062 C3.69897461 17.43164062 3.69897461 17.43164062 3.69897461 17.43164062 Z " fill="#04215B" transform="translate(260.301025390625,208.568359375)"/>
<path d="M0 0 C5.445 17.82 5.445 17.82 11 36 C11.33 23.79 11.66 11.58 12 -1 C20.91 -1 29.82 -1 39 -1 C39 1.31 39 3.62 39 6 C36.20865148 6.19425873 33.41716313 6.38069517 30.625 6.5625 C29.43390625 6.64661133 29.43390625 6.64661133 28.21875 6.73242188 C22.2265625 7.11328125 22.2265625 7.11328125 20 6 C20 9.96 20 13.92 20 18 C26.27 18 32.54 18 39 18 C39 19.65 39 21.3 39 23 C37 25 37 25 33.0859375 25.1953125 C31.51550649 25.18200376 29.94513779 25.15813602 28.375 25.125 C27.57320312 25.11597656 26.77140625 25.10695312 25.9453125 25.09765625 C23.96341477 25.07406223 21.98167019 25.03819065 20 25 C20 28.96 20 32.92 20 37 C26.27 37 32.54 37 39 37 C39 39.31 39 41.62 39 44 C36.31383149 46.68616851 28.42600276 45.23512196 24.8125 45.25 C22.96301758 45.2809375 22.96301758 45.2809375 21.07617188 45.3125 C19.88185547 45.31765625 18.68753906 45.3228125 17.45703125 45.328125 C16.36366455 45.3374707 15.27029785 45.34681641 14.14379883 45.35644531 C10.40007059 44.93197974 8.13876132 44.090856 5 42 C4.01 40.02 3.02 38.04 2 36 C-2.95 36 -7.9 36 -13 36 C-13.99 37.98 -14.98 39.96 -16 42 C-18.5 43.9375 -18.5 43.9375 -21 45 C-21.99 44.67 -22.98 44.34 -24 44 C-22.5199334 38.83656848 -21.0262178 33.67735389 -19.52001953 28.52148438 C-19.01011257 26.76898233 -18.50387481 25.01540818 -18.00146484 23.26074219 C-17.27636084 20.73077535 -16.53790857 18.20502801 -15.796875 15.6796875 C-15.57690857 14.90132538 -15.35694214 14.12296326 -15.13031006 13.3210144 C-13.54285089 7.97731483 -11.69762561 3.00146416 -7.0625 -0.4375 C-5 -1 -5 -1 0 0 Z M-6 9 C-7.65 14.94 -9.3 20.88 -11 27 C-7.37 27 -3.74 27 0 27 C-1.65 21.06 -3.3 15.12 -5 9 C-5.33 9 -5.66 9 -6 9 Z " fill="#4EBDF0" transform="translate(139,210)"/>
<path d="M0 0 C5.65192446 1.6610662 10.7477799 4.21232536 16 6.83203125 C16.95390625 7.30565598 17.9078125 7.7792807 18.890625 8.26725769 C20.902092 9.26794155 22.9124882 10.27078036 24.921875 11.27563477 C27.98530759 12.80516428 31.05490601 14.32178572 34.125 15.83789062 C36.08372503 16.81431882 38.04207123 17.79150738 40 18.76953125 C40.91265625 19.21867386 41.8253125 19.66781647 42.765625 20.13056946 C48.96858124 23.25421032 54.4261439 26.06937139 57.8125 32.375 C59.86027723 38.61469768 59.75389934 45.48257561 60 52 C45.00357005 47.76607225 28.69463283 42.68840247 17 32 C16.43925781 31.50757813 15.87851562 31.01515625 15.30078125 30.5078125 C9.99544536 25.13285278 7.08997479 17.61503321 3.90087891 10.87060547 C3.06014556 9.1248876 2.16290519 7.40669819 1.26171875 5.69140625 C0 3 0 3 0 0 Z " fill="#49BCF4" transform="translate(28,184)"/>
<path d="M0 0 C2.875 -0.1875 2.875 -0.1875 6 0 C8.4030144 3.60452159 8.32900999 6.3064773 8.37890625 10.4765625 C8.39590073 11.20241547 8.4128952 11.92826843 8.43040466 12.67611694 C8.48349951 14.9923232 8.52382781 17.30851152 8.5625 19.625 C8.60639016 21.94854002 8.65303274 24.27193951 8.70530701 26.5953064 C8.73733093 28.04085743 8.76420012 29.48653323 8.78553772 30.93228149 C8.57075625 34.25089091 8.57075625 34.25089091 10 37 C14.29 37 18.58 37 23 37 C23.33 25.12 23.66 13.24 24 1 C27.465 0.505 27.465 0.505 31 0 C31.12381149 5.46256275 31.21443826 10.92430488 31.2746582 16.38793945 C31.29976702 18.24550609 31.33386134 20.10297427 31.37719727 21.96020508 C31.43801124 24.63387358 31.4662452 27.30623365 31.48828125 29.98046875 C31.51408768 30.80773972 31.5398941 31.63501068 31.56648254 32.48735046 C31.56858262 36.82719788 31.42167656 38.47060787 28.62402344 41.98291016 C22.76926125 46.4834726 17.17286349 46.69516739 10 46 C6.3172114 44.61895428 3.45963715 43.10691008 1 40 C-0.27385127 36.1784462 -0.12353188 32.5931553 -0.09765625 28.61328125 C-0.0962413 27.79627243 -0.09482635 26.97926361 -0.09336853 26.13749695 C-0.08777294 23.52912732 -0.07522129 20.92084366 -0.0625 18.3125 C-0.05748443 16.54362103 -0.05292162 14.77474072 -0.04882812 13.00585938 C-0.03780496 8.67053981 -0.02054338 4.33528448 0 0 Z " fill="#042259" transform="translate(324,209)"/>
<path d="M0 0 C4.17101156 3.19343072 7.90509348 7.38059962 9.75 12.33984375 C9.94134471 15.09183094 10.0294906 17.71730315 10 20.46484375 C10.01160156 21.55732422 10.01160156 21.55732422 10.0234375 22.671875 C10.00342069 28.08642306 10.00342069 28.08642306 7.75 30.33984375 C8.08 27.36984375 8.41 24.39984375 8.75 21.33984375 C7.43 21.00984375 6.11 20.67984375 4.75 20.33984375 C4.75 19.67984375 4.75 19.01984375 4.75 18.33984375 C6.07 18.66984375 7.39 18.99984375 8.75 19.33984375 C8.255 17.85484375 8.255 17.85484375 7.75 16.33984375 C8.245 14.85484375 8.245 14.85484375 8.75 13.33984375 C8.09 13.33984375 7.43 13.33984375 6.75 13.33984375 C6.75 12.67984375 6.75 12.01984375 6.75 11.33984375 C6.09 11.33984375 5.43 11.33984375 4.75 11.33984375 C4.75 12.98984375 4.75 14.63984375 4.75 16.33984375 C4.42 16.33984375 4.09 16.33984375 3.75 16.33984375 C3.42 18.97984375 3.09 21.61984375 2.75 24.33984375 C0.44 24.66984375 -1.87 24.99984375 -4.25 25.33984375 C-3.26 25.66984375 -2.27 25.99984375 -1.25 26.33984375 C-1.25 27.32984375 -1.25 28.31984375 -1.25 29.33984375 C-2.9 29.00984375 -4.55 28.67984375 -6.25 28.33984375 C-5.59 29.32984375 -4.93 30.31984375 -4.25 31.33984375 C-5.91666667 31.33984375 -7.58333333 31.33984375 -9.25 31.33984375 C-9.25 31.99984375 -9.25 32.65984375 -9.25 33.33984375 C-10.24 33.33984375 -11.23 33.33984375 -12.25 33.33984375 C-12.91 32.34984375 -13.57 31.35984375 -14.25 30.33984375 C-14.91 30.33984375 -15.57 30.33984375 -16.25 30.33984375 C-20.875 25.71484375 -20.875 25.71484375 -21.25 22.33984375 C-20.3125 19.08984375 -20.3125 19.08984375 -19.25 16.33984375 C-20.7040625 15.56640625 -20.7040625 15.56640625 -22.1875 14.77734375 C-25.25 12.33984375 -25.25 12.33984375 -26.125 8.58984375 C-26.186875 6.98109375 -26.186875 6.98109375 -26.25 5.33984375 C-27.9 5.99984375 -29.55 6.65984375 -31.25 7.33984375 C-23.67658467 -2.7857848 -11.66432696 -6.82849141 0 0 Z M-13.25 5.33984375 C-12.59 7.64984375 -11.93 9.95984375 -11.25 12.33984375 C-10.92 12.33984375 -10.59 12.33984375 -10.25 12.33984375 C-10.25 10.35984375 -10.25 8.37984375 -10.25 6.33984375 C-11.24 6.00984375 -12.23 5.67984375 -13.25 5.33984375 Z M-18.25 6.33984375 C-16.9410428 9.46181853 -16.9410428 9.46181853 -14.25 11.33984375 C-14.58 9.68984375 -14.91 8.03984375 -15.25 6.33984375 C-16.24 6.33984375 -17.23 6.33984375 -18.25 6.33984375 Z M-7.25 7.33984375 C-7.58 9.64984375 -7.91 11.95984375 -8.25 14.33984375 C-6.35786631 11.95410996 -5.22608217 10.26809027 -4.25 7.33984375 C-5.24 7.33984375 -6.23 7.33984375 -7.25 7.33984375 Z M-21.25 8.33984375 C-22.24 9.82484375 -22.24 9.82484375 -23.25 11.33984375 C-20.775 11.83484375 -20.775 11.83484375 -18.25 12.33984375 C-18.25 11.67984375 -18.25 11.01984375 -18.25 10.33984375 C-18.91 10.33984375 -19.57 10.33984375 -20.25 10.33984375 C-20.58 9.67984375 -20.91 9.01984375 -21.25 8.33984375 Z M-3.25 9.33984375 C-3.91 11.31984375 -4.57 13.29984375 -5.25 15.33984375 C-3.6 14.01984375 -1.95 12.69984375 -0.25 11.33984375 C-1.24 10.67984375 -2.23 10.01984375 -3.25 9.33984375 Z M-14.25 11.33984375 C-13.25 13.33984375 -13.25 13.33984375 -13.25 13.33984375 Z M-0.25 13.33984375 C-1.57 14.98984375 -2.89 16.63984375 -4.25 18.33984375 C-2.27 18.00984375 -0.29 17.67984375 1.75 17.33984375 C1.09 16.01984375 0.43 14.69984375 -0.25 13.33984375 Z M0.75 19.33984375 C-1.23 19.99984375 -3.21 20.65984375 -5.25 21.33984375 C-5.25 21.66984375 -5.25 21.99984375 -5.25 22.33984375 C-2.94 22.33984375 -0.63 22.33984375 1.75 22.33984375 C1.42 21.34984375 1.09 20.35984375 0.75 19.33984375 Z " fill="#4CB6EB" transform="translate(245.25,211.66015625)"/>
<path d="M0 0 C0.97582031 -0.01224609 1.95164062 -0.02449219 2.95703125 -0.03710938 C4.35501953 -0.04000977 4.35501953 -0.04000977 5.78125 -0.04296875 C6.63783203 -0.04707764 7.49441406 -0.05118652 8.37695312 -0.05541992 C10.5 0.1875 10.5 0.1875 12.5 2.1875 C12.625 4.8125 12.625 4.8125 12.5 7.1875 C11.66021606 7.217229 11.66021606 7.217229 10.8034668 7.24755859 C8.26434146 7.34287783 5.72603112 7.45252753 3.1875 7.5625 C1.86588867 7.60890625 1.86588867 7.60890625 0.51757812 7.65625 C-0.32998047 7.69492188 -1.17753906 7.73359375 -2.05078125 7.7734375 C-3.22120972 7.82056885 -3.22120972 7.82056885 -4.4152832 7.86865234 C-6.80155768 8.08337889 -6.80155768 8.08337889 -9.5 10.1875 C-9.86297936 12.16497122 -9.86297936 12.16497122 -9.6875 14.3125 C-9.625625 15.59125 -9.56375 16.87 -9.5 18.1875 C-8.57058594 18.19007813 -7.64117187 18.19265625 -6.68359375 18.1953125 C5.32989788 18.57112559 5.32989788 18.57112559 10.36328125 23.6171875 C13.08104224 27.37162021 12.970612 31.75030115 12.5 36.1875 C10.93020534 40.34745584 9.38276091 42.95197099 5.5 45.1875 C2.58990624 46.08371336 -0.00979904 46.30567703 -3.046875 46.28515625 C-3.89121094 46.28193359 -4.73554688 46.27871094 -5.60546875 46.27539062 C-6.91451172 46.26282227 -6.91451172 46.26282227 -8.25 46.25 C-9.58224609 46.24323242 -9.58224609 46.24323242 -10.94140625 46.23632812 C-13.12767329 46.224574 -15.31380179 46.20814249 -17.5 46.1875 C-17.5 43.8775 -17.5 41.5675 -17.5 39.1875 C-15.26292333 38.06896167 -13.88623604 38.00830917 -11.40234375 37.90625 C-10.60119141 37.86886719 -9.80003906 37.83148438 -8.97460938 37.79296875 C-7.27930361 37.72249415 -5.58399106 37.65218239 -3.88867188 37.58203125 C0.1309064 37.78957038 0.1309064 37.78957038 3.5 36.1875 C3.57148199 34.83506083 3.58399454 33.47915633 3.5625 32.125 C3.541875 30.825625 3.52125 29.52625 3.5 28.1875 C0.51418426 27.19222809 -1.69149126 27.05836894 -4.8125 26.9375 C-10.36903357 26.48856153 -12.73789977 25.24660814 -16.5 21.1875 C-18.59948946 16.98852108 -18.04696419 11.74751667 -17.5 7.1875 C-13.58015535 -0.63756302 -7.69848236 0.00508486 0 0 Z " fill="#03205C" transform="translate(447.5,208.8125)"/>
<path d="M0 0 C0.89589844 0.00322266 1.79179687 0.00644531 2.71484375 0.00976562 C4.12056641 0.02233398 4.12056641 0.02233398 5.5546875 0.03515625 C6.49957031 0.03966797 7.44445312 0.04417969 8.41796875 0.04882812 C10.75527137 0.06063268 13.09244811 0.07709866 15.4296875 0.09765625 C15.4296875 2.40765625 15.4296875 4.71765625 15.4296875 7.09765625 C13.60630859 7.18853516 13.60630859 7.18853516 11.74609375 7.28125 C10.16144522 7.36563957 8.57681048 7.45028835 6.9921875 7.53515625 C6.18974609 7.57447266 5.38730469 7.61378906 4.56054688 7.65429688 C0.67729189 7.50308585 0.67729189 7.50308585 -2.5703125 9.09765625 C-2.65798362 11.17027701 -2.67727123 13.24585919 -2.66796875 15.3203125 C-2.66474609 16.58037109 -2.66152344 17.84042969 -2.65820312 19.13867188 C-2.64984653 20.47916734 -2.64138157 21.81966213 -2.6328125 23.16015625 C-2.6277991 24.50455567 -2.62323592 25.84895685 -2.61914062 27.19335938 C-2.60730738 30.49483566 -2.59082221 33.79622428 -2.5703125 37.09765625 C-1.52230469 37.13503906 -0.47429687 37.17242187 0.60546875 37.2109375 C1.98441055 37.2766014 3.36331521 37.3430486 4.7421875 37.41015625 C5.43248047 37.43271484 6.12277344 37.45527344 6.83398438 37.47851562 C9.72456871 37.63212156 11.96629829 37.8185595 14.47265625 39.328125 C15.83504309 41.84715046 15.22342276 43.42781946 14.4296875 46.09765625 C11.86690051 46.15186326 9.30527267 46.19142632 6.7421875 46.22265625 C6.02095703 46.23941406 5.29972656 46.25617188 4.55664062 46.2734375 C-0.84886091 46.32280281 -4.36729467 45.77054019 -8.67651367 42.49829102 C-11.23887296 39.25016946 -11.14699171 36.4141813 -11.1015625 32.4453125 C-11.1053894 31.70816513 -11.10921631 30.97101776 -11.11315918 30.21153259 C-11.11587552 28.65573762 -11.10853356 27.09989677 -11.09179688 25.54418945 C-11.07041017 23.17099375 -11.09158824 20.8008353 -11.1171875 18.42773438 C-11.11454357 16.91275377 -11.10941724 15.39777505 -11.1015625 13.8828125 C-11.10965942 13.17745865 -11.11775635 12.4721048 -11.12609863 11.74537659 C-11.03520931 6.93430403 -9.97640664 4.4779105 -6.5703125 1.09765625 C-4.16971433 -0.10264283 -2.67670601 -0.01694118 0 0 Z " fill="#05225A" transform="translate(411.5703125,208.90234375)"/>
<path d="M0 0 C7.0788478 2.24469164 13.87109648 4.93285823 20.6875 7.875 C22.19666992 8.50728516 22.19666992 8.50728516 23.73632812 9.15234375 C30.99203232 12.28037971 37.57936934 15.4386059 41 23 C41.6875 26.8125 41.6875 26.8125 42 30 C35.31433357 28.60289336 28.82169146 26.87957657 22.3125 24.8125 C21.40177734 24.54630859 20.49105469 24.28011719 19.55273438 24.00585938 C11.67354042 21.48245739 8.21711045 17.78186125 4.1015625 10.76171875 C3.61429688 9.74722656 3.12703125 8.73273438 2.625 7.6875 C2.12226562 6.66011719 1.61953125 5.63273438 1.1015625 4.57421875 C0 2 0 2 0 0 Z " fill="#04215B" transform="translate(47,224)"/>
<path d="M0 0 C9.9 0 19.8 0 30 0 C30 2.31 30 4.62 30 7 C26.7 7.33 23.4 7.66 20 8 C19.67 20.54 19.34 33.08 19 46 C16.36 46 13.72 46 11 46 C10.67 33.46 10.34 20.92 10 8 C6.7 7.67 3.4 7.34 0 7 C0 4.69 0 2.38 0 0 Z " fill="#031F59" transform="translate(358,209)"/>
<path d="M0 0 C2.875 -0.125 2.875 -0.125 6 0 C8 2 8 2 8.24050903 3.91091919 C8.23606781 4.68813324 8.23162659 5.46534729 8.22705078 6.26611328 C8.22682419 7.58725632 8.22682419 7.58725632 8.22659302 8.93508911 C8.21627045 9.88721283 8.20594788 10.83933655 8.1953125 11.8203125 C8.1924826 12.79410858 8.18965271 13.76790466 8.18673706 14.77120972 C8.17551913 17.88926349 8.1504117 21.00703268 8.125 24.125 C8.11497228 26.23567294 8.10584607 28.34635038 8.09765625 30.45703125 C8.07557458 35.63811835 8.04208129 40.81903885 8 46 C2.25 45.25 2.25 45.25 0 43 C-0.24050903 41.12704468 -0.24050903 41.12704468 -0.22705078 38.82568359 C-0.22689972 37.96494232 -0.22674866 37.10420105 -0.22659302 36.21737671 C-0.21627045 35.28712677 -0.20594788 34.35687683 -0.1953125 33.3984375 C-0.1924826 32.44683746 -0.18965271 31.49523743 -0.18673706 30.51480103 C-0.17551989 27.46807408 -0.15041263 24.42163846 -0.125 21.375 C-0.11497218 19.31250424 -0.10584599 17.25000388 -0.09765625 15.1875 C-0.07557554 10.12488733 -0.0410353 5.0624931 0 0 Z " fill="#09265D" transform="translate(390,209)"/>
<path d="M0 0 C0.99 0.33 1.98 0.66 3 1 C3 2.65 3 4.3 3 6 C3.66 5.01 4.32 4.02 5 3 C5.66 3 6.32 3 7 3 C6.67 4.65 6.34 6.3 6 8 C6.66 7.34 7.32 6.68 8 6 C8.99 6.33 9.98 6.66 11 7 C10.34 8.32 9.68 9.64 9 11 C9.99 11 10.98 11 12 11 C11.67 11.99 11.34 12.98 11 14 C10.01 14.33 9.02 14.66 8 15 C9.32 15.33 10.64 15.66 12 16 C12 16.66 12 17.32 12 18 C10.02 18.33 8.04 18.66 6 19 C6.99 19.33 7.98 19.66 9 20 C9 20.99 9 21.98 9 23 C7.35 22.67 5.7 22.34 4 22 C4.66 22.99 5.32 23.98 6 25 C4.33333333 25 2.66666667 25 1 25 C1 25.66 1 26.32 1 27 C0.01 27 -0.98 27 -2 27 C-2.66 26.01 -3.32 25.02 -4 24 C-4.66 24 -5.32 24 -6 24 C-10.625 19.375 -10.625 19.375 -11 16 C-9.95419876 12.2190263 -8.49277768 8.62531723 -7 5 C-6.01 5 -5.02 5 -4 5 C-3.67 3.68 -3.34 2.36 -3 1 C-2.34 1.66 -1.68 2.32 -1 3 C-0.67 2.01 -0.34 1.02 0 0 Z M-4 5 C-3 7 -3 7 -3 7 Z " fill="#1C4066" transform="translate(235,218)"/>
<path d="M0 0 C1.134375 0.020625 2.26875 0.04125 3.4375 0.0625 C3.4375 1.0525 3.4375 2.0425 3.4375 3.0625 C-1.3125 4.1875 -1.3125 4.1875 -3.5625 3.0625 C-3.2325 9.3325 -2.9025 15.6025 -2.5625 22.0625 C-1.5725 21.7325 -0.5825 21.4025 0.4375 21.0625 C0.7675 18.4225 1.0975 15.7825 1.4375 13.0625 C2.0975 13.0625 2.7575 13.0625 3.4375 13.0625 C3.4375 23.6225 3.4375 34.1825 3.4375 45.0625 C-1.5625 46.0625 -1.5625 46.0625 -4.5625 44.0625 C-5.01074219 41.82617188 -5.01074219 41.82617188 -5.109375 39.03125 C-5.1501416 38.00064453 -5.1909082 36.97003906 -5.23291016 35.90820312 C-5.2591748 34.80412109 -5.28543945 33.70003906 -5.3125 32.5625 C-5.34778809 31.44294922 -5.38307617 30.32339844 -5.41943359 29.16992188 C-5.66182458 19.79032832 -5.60219517 10.39665219 -4.5625 1.0625 C-3.5625 0.0625 -3.5625 0.0625 0 0 Z " fill="#05275D" transform="translate(260.5625,208.9375)"/>
<path d="M0 0 C0.66 0 1.32 0 2 0 C2.19463664 4.49779878 2.37293706 8.99588349 2.53710938 13.49487305 C2.59496272 15.02043367 2.65702572 16.54584142 2.72363281 18.07104492 C2.81944701 20.28275587 2.89933035 22.49460206 2.9765625 24.70703125 C3.00875885 25.37209183 3.0409552 26.0371524 3.0741272 26.72236633 C3.26406688 32.93561295 2.17822525 37.51976113 1 44 C9.25 44 17.5 44 26 44 C26 42.35 26 40.7 26 39 C20.39 39 14.78 39 9 39 C9 38.67 9 38.34 9 38 C14.94 38 20.88 38 27 38 C27 40.31 27 42.62 27 45 C24.31383149 47.68616851 16.42600276 46.23512196 12.8125 46.25 C10.96301758 46.2809375 10.96301758 46.2809375 9.07617188 46.3125 C7.88185547 46.31765625 6.68753906 46.3228125 5.45703125 46.328125 C4.36366455 46.3374707 3.27029785 46.34681641 2.14379883 46.35644531 C-1.50887468 45.94230356 -3.87511356 44.9141226 -7 43 C-9 40 -9 40 -8.625 37.8125 C-8.41875 37.214375 -8.2125 36.61625 -8 36 C-7.01 36.99 -6.02 37.98 -5 39 C-4.67 38.34 -4.34 37.68 -4 37 C-4.66 36.67 -5.32 36.34 -6 36 C-5.979375 34.824375 -5.95875 33.64875 -5.9375 32.4375 C-5.93052739 28.52586533 -6.35749657 24.85502056 -7 21 C-5 24 -5 24 -1 37 C-0.67 24.79 -0.34 12.58 0 0 Z " fill="#5DB8E4" transform="translate(151,209)"/>
<path d="M0 0 C0.66 0 1.32 0 2 0 C2 0.66 2 1.32 2 2 C2.66 2 3.32 2 4 2 C4 3.98 4 5.96 4 8 C2.68 7.67 1.36 7.34 0 7 C0 7.66 0 8.32 0 9 C1.32 9.33 2.64 9.66 4 10 C3.88570603 11.77155654 3.75816963 13.54226229 3.625 15.3125 C3.55539063 16.29863281 3.48578125 17.28476563 3.4140625 18.30078125 C3 21 3 21 1 24 C-0.66014616 24.36442233 -2.32706064 24.69972883 -4 25 C-4.33 25.66 -4.66 26.32 -5 27 C-7.48412207 27.82804069 -9.35220307 28 -12 28 C-13.56406528 28.15127402 -15.12659252 28.31902522 -16.6875 28.5 C-17.49574219 28.5928125 -18.30398437 28.685625 -19.13671875 28.78125 C-19.75160156 28.8534375 -20.36648437 28.925625 -21 29 C-21 27.68 -21 26.36 -21 25 C-20.09507812 24.85304687 -20.09507812 24.85304687 -19.171875 24.703125 C-14.19430884 23.77183843 -11.35450549 23.02540659 -8 19 C-7.34 19 -6.68 19 -6 19 C-6 18.01 -6 17.02 -6 16 C-5.34 16 -4.68 16 -4 16 C-4 15.01 -4 14.02 -4 13 C-3.34 13 -2.68 13 -2 13 C-2.02320313 12.39671875 -2.04640625 11.7934375 -2.0703125 11.171875 C-2.09738281 9.97304687 -2.09738281 9.97304687 -2.125 8.75 C-2.14820313 7.96109375 -2.17140625 7.1721875 -2.1953125 6.359375 C-1.9828378 3.79268059 -1.28654105 2.2083933 0 0 Z " fill="#49BDF6" transform="translate(250,223)"/>
<path d="M0 0 C1.32 0.33 2.64 0.66 4 1 C5.046875 3.06640625 5.046875 3.06640625 5.75 5.5625 C5.99234375 6.38878906 6.2346875 7.21507812 6.484375 8.06640625 C6.65453125 8.70449219 6.8246875 9.34257812 7 10 C8.53521956 7.69717067 9.58357909 5.82137765 10.625 3.3125 C11.07875 2.219375 11.5325 1.12625 12 0 C12.99 0 13.98 0 15 0 C15 5.61 15 11.22 15 17 C14.01 17 13.02 17 12 17 C11.67 15.02 11.34 13.04 11 11 C10.34 12.98 9.68 14.96 9 17 C8.01 17 7.02 17 6 17 C5.01 14.69 4.02 12.38 3 10 C3 11.98 3 13.96 3 16 C2.01 16.33 1.02 16.66 0 17 C0 11.39 0 5.78 0 0 Z " fill="#132D55" transform="translate(233,188)"/>
<path d="M0 0 C0.99 0.33 1.98 0.66 3 1 C3 2.32 3 3.64 3 5 C3.7724421 7.20973616 4.61281196 9.39628254 5.5 11.5625 C8 17.68055556 8 17.68055556 8 21 C4.75 21 4.75 21 1 20 C-0.98610996 17.61155909 -1.93597893 14.8952333 -3 12 C-3.37253906 11.01773438 -3.74507812 10.03546875 -4.12890625 9.0234375 C-5.11699898 6.35868567 -6.07172447 3.68607388 -7 1 C-5.5459375 1.0309375 -5.5459375 1.0309375 -4.0625 1.0625 C-1.12534105 1.35618499 -1.12534105 1.35618499 0 0 Z " fill="#53BAEB" transform="translate(202,234)"/>
<path d="M0 0 C1.65 0 3.3 0 5 0 C5 9.57 5 19.14 5 29 C3.68 29.33 2.36 29.66 1 30 C-1 28 -1 28 -1.13525391 25.20263672 C-1.08288574 24.04006348 -1.03051758 22.87749023 -0.9765625 21.6796875 C-0.925 20.42285156 -0.8734375 19.16601562 -0.8203125 17.87109375 C-0.75543074 16.53905165 -0.69032366 15.2070205 -0.625 13.875 C-0.56676177 12.53519706 -0.50945844 11.19535313 -0.453125 9.85546875 C-0.31129726 6.56979268 -0.15985087 3.28484064 0 0 Z " fill="#00205C" transform="translate(392,222)"/>
<path d="M0 0 C2.4377963 -0.05397335 4.87439685 -0.09365616 7.3125 -0.125 C8.00279297 -0.14175781 8.69308594 -0.15851563 9.40429688 -0.17578125 C13.17135396 -0.21217794 14.78431704 -0.14378864 18 2 C17 3 17 3 14.27734375 3.09765625 C12.62412109 3.08025391 12.62412109 3.08025391 10.9375 3.0625 C9.28041016 3.04896484 9.28041016 3.04896484 7.58984375 3.03515625 C6.73519531 3.02355469 5.88054687 3.01195312 5 3 C4.97277483 5.20826378 4.95350271 7.41662638 4.9375 9.625 C4.92589844 10.85476562 4.91429687 12.08453125 4.90234375 13.3515625 C4.99136076 16.67723791 5.36313913 19.74047588 6 23 C5.34 23 4.68 23 4 23 C3.01 23.66 2.02 24.32 1 25 C-0.27861615 22.44276771 -0.11336609 20.63262898 -0.09765625 17.7734375 C-0.09443359 16.7421875 -0.09121094 15.7109375 -0.08789062 14.6484375 C-0.07951172 13.56820312 -0.07113281 12.48796875 -0.0625 11.375 C-0.05798828 10.28703125 -0.05347656 9.1990625 -0.04882812 8.078125 C-0.03701776 5.38536211 -0.02054778 2.69270812 0 0 Z " fill="#46BCF5" transform="translate(153,211)"/>
<path d="M0 0 C0.66 0 1.32 0 2 0 C2.27615058 1.59987236 2.52007625 3.205333 2.75 4.8125 C2.88921875 5.70582031 3.0284375 6.59914062 3.171875 7.51953125 C3 10 3 10 1.5 11.8125 C-1.91559745 13.43490879 -5.05694325 13.32363347 -8.75 13.1875 C-9.44738281 13.17396484 -10.14476562 13.16042969 -10.86328125 13.14648438 C-12.57585541 13.1112945 -14.28802941 13.05749155 -16 13 C-16 13.66 -16 14.32 -16 15 C-17.32 15 -18.64 15 -20 15 C-20 15.66 -20 16.32 -20 17 C-16.91560757 16.91890252 -13.83316088 16.80608311 -10.75 16.6875 C-9.87730469 16.66494141 -9.00460937 16.64238281 -8.10546875 16.61914062 C-1.98255529 16.38832775 -1.98255529 16.38832775 3 13 C3.66 13 4.32 13 5 13 C5 12.01 5 11.02 5 10 C5.66 10 6.32 10 7 10 C6.79375 9.2575 6.5875 8.515 6.375 7.75 C5.95591249 4.67669159 6.38050989 3.57213134 8 1 C8.33 1 8.66 1 9 1 C9.28971178 6.60109448 9.15976306 10.14750673 6 15 C2.19102974 18.56323024 -1.46098191 19.13202039 -6.546875 19.09765625 C-7.39121094 19.09443359 -8.23554688 19.09121094 -9.10546875 19.08789062 C-9.97816406 19.07951172 -10.85085938 19.07113281 -11.75 19.0625 C-12.63816406 19.05798828 -13.52632813 19.05347656 -14.44140625 19.04882812 C-16.62767329 19.037074 -18.81380179 19.02064249 -21 19 C-21 16.69 -21 14.38 -21 12 C-18.76292333 10.88146167 -17.38623604 10.82080917 -14.90234375 10.71875 C-14.10119141 10.68136719 -13.30003906 10.64398438 -12.47460938 10.60546875 C-10.77930361 10.53499415 -9.08399106 10.46468239 -7.38867188 10.39453125 C-3.3690936 10.60207038 -3.3690936 10.60207038 0 9 C0.07179964 7.48071962 0.08392007 5.95832518 0.0625 4.4375 C0.05347656 3.61121094 0.04445313 2.78492188 0.03515625 1.93359375 C0.02355469 1.29550781 0.01195312 0.65742188 0 0 Z " fill="#07214D" transform="translate(451,236)"/>
<path d="M0 0 C9.9 0 19.8 0 30 0 C30 1.98 30 3.96 30 6 C29.67 6 29.34 6 29 6 C29 4.35 29 2.7 29 1 C18.605 1.495 18.605 1.495 8 2 C8 3.32 8 4.64 8 6 C9.32 5.67 10.64 5.34 12 5 C12.83706259 10.0716145 13.13517405 14.97764139 13.09765625 20.12109375 C13.0962413 20.86585464 13.09482635 21.61061554 13.09336853 22.37794495 C13.08781989 24.73117273 13.07527733 27.0843015 13.0625 29.4375 C13.05747835 31.04361841 13.05291661 32.64973832 13.04882812 34.25585938 C13.03786735 38.17061043 13.02063884 42.08528849 13 46 C12.34 46 11.68 46 11 46 C10.67 33.46 10.34 20.92 10 8 C6.7 7.67 3.4 7.34 0 7 C0 4.69 0 2.38 0 0 Z " fill="#0D2452" transform="translate(358,209)"/>
<path d="M0 0 C0.99 0.33 1.98 0.66 3 1 C3 2.65 3 4.3 3 6 C3.66 5.01 4.32 4.02 5 3 C5.66 3 6.32 3 7 3 C6.67 4.65 6.34 6.3 6 8 C6.66 7.34 7.32 6.68 8 6 C8.99 6.33 9.98 6.66 11 7 C8.875 9.5625 8.875 9.5625 6 12 C2.6875 11.8125 2.6875 11.8125 0 11 C0 10.34 0 9.68 0 9 C-1.65 9 -3.3 9 -5 9 C-5.59732819 11.76264289 -6 14.16032769 -6 17 C-6.31088368 18.67099977 -6.64080332 20.33871537 -7 22 C-10 20 -10 20 -10.8125 18.25 C-11.19879521 13.61445751 -8.73738361 9.2193602 -7 5 C-6.01 5 -5.02 5 -4 5 C-3.67 3.68 -3.34 2.36 -3 1 C-2.34 1.66 -1.68 2.32 -1 3 C-0.67 2.01 -0.34 1.02 0 0 Z M-4 5 C-3 7 -3 7 -3 7 Z " fill="#23426C" transform="translate(235,218)"/>
<path d="M0 0 C1.98 0 3.96 0 6 0 C8.97855356 2.97855356 8.35625184 6.29024823 8.4140625 10.2890625 C8.43342865 11.10748627 8.4527948 11.92591003 8.4727478 12.76913452 C8.53261082 15.38764976 8.57895532 18.00620881 8.625 20.625 C8.66317364 22.39845686 8.70222501 24.17189505 8.7421875 25.9453125 C8.83831771 30.29672375 8.92232351 34.64822179 9 39 C9.66 39.33 10.32 39.66 11 40 C10.505 42.475 10.505 42.475 10 45 C11.98 44.505 11.98 44.505 14 44 C14 44.66 14 45.32 14 46 C11.87561661 46.08078641 9.7503677 46.13909141 7.625 46.1875 C6.44164062 46.22230469 5.25828125 46.25710937 4.0390625 46.29296875 C2.53472656 46.14794922 2.53472656 46.14794922 1 46 C0.34 45.01 -0.32 44.02 -1 43 C1.64 43.33 4.28 43.66 7 44 C6.505 23.21 6.505 23.21 6 2 C4.35 2 2.7 2 1 2 C1 10.25 1 18.5 1 27 C0.67 27 0.34 27 0 27 C0 18.09 0 9.18 0 0 Z " fill="#11244B" transform="translate(281,209)"/>
<path d="M0 0 C0.66 0 1.32 0 2 0 C2 0.99 2 1.98 2 3 C2.99 3.33 3.98 3.66 5 4 C5 4.66 5 5.32 5 6 C2.69 6 0.38 6 -2 6 C-2 7.65 -2 9.3 -2 11 C0.31 11 2.62 11 5 11 C5 11.99 5 12.98 5 14 C2.69 14 0.38 14 -2 14 C-2 15.32 -2 16.64 -2 18 C0.31 18 2.62 18 5 18 C5 18.99 5 19.98 5 21 C1.7 21 -1.6 21 -5 21 C-5 15.39 -5 9.78 -5 4 C-3.68 4 -2.36 4 -1 4 C-0.67 2.68 -0.34 1.36 0 0 Z " fill="#192D55" transform="translate(258,184)"/>
<path d="M0 0 C0.80308594 -0.02578125 1.60617188 -0.0515625 2.43359375 -0.078125 C3.48740234 0.08429688 3.48740234 0.08429688 4.5625 0.25 C6.5625 3.25 6.5625 3.25 6.1875 6.1875 C5.98125 7.198125 5.775 8.20875 5.5625 9.25 C5.5625 10.57 5.5625 11.89 5.5625 13.25 C5.2643576 14.59164079 4.94006808 15.92851173 4.5625 17.25 C4.15 16.280625 3.7375 15.31125 3.3125 14.3125 C1.91350832 11.12739901 1.91350832 11.12739901 -0.625 10.375 C-1.223125 10.33375 -1.82125 10.2925 -2.4375 10.25 C-2.4375 12.56 -2.4375 14.87 -2.4375 17.25 C-3.4275 16.92 -4.4175 16.59 -5.4375 16.25 C-5.46435095 13.77076199 -5.48426547 11.2918116 -5.5 8.8125 C-5.51256836 7.75192383 -5.51256836 7.75192383 -5.52539062 6.66992188 C-5.53403588 4.86306441 -5.48970011 3.05612397 -5.4375 1.25 C-3.84882134 -0.33867866 -2.19060484 0.04205961 0 0 Z M-2.4375 2.25 C-2.4375 3.9 -2.4375 5.55 -2.4375 7.25 C-0.4575 7.25 1.5225 7.25 3.5625 7.25 C3.2325 5.6 2.9025 3.95 2.5625 2.25 C0.9125 2.25 -0.7375 2.25 -2.4375 2.25 Z " fill="#112B50" transform="translate(153.4375,187.75)"/>
<path d="M0 0 C0 0.66 0 1.32 0 2 C-2.31 2.33 -4.62 2.66 -7 3 C-7.33 4.32 -7.66 5.64 -8 7 C-6.35 7 -4.7 7 -3 7 C-3 6.34 -3 5.68 -3 5 C-2.01 5 -1.02 5 0 5 C1.53166168 9.08443115 0.63081652 12.79455657 0 17 C-7.75 17.125 -7.75 17.125 -10 16 C-10 11.05 -10 6.1 -10 1 C-6.78548731 -0.60725635 -3.56387464 -0.05748185 0 0 Z M-8 10 C-8 11.32 -8 12.64 -8 14 C-6.35 14 -4.7 14 -3 14 C-3 12.68 -3 11.36 -3 10 C-4.65 10 -6.3 10 -8 10 Z " fill="#183159" transform="translate(218,188)"/>
<path d="M0 0 C-0.57344937 2.86724686 -0.8614515 3.8614515 -3 6 C-2.525625 6.350625 -2.05125 6.70125 -1.5625 7.0625 C0.67873825 9.84163543 0.67117658 12.5144717 1 16 C0.01 15.67 -0.98 15.34 -2 15 C-1.67 14.34 -1.34 13.68 -1 13 C-2.98 13.33 -4.96 13.66 -7 14 C-9.30119506 10.44360764 -10.77472971 7.05281712 -12 3 C-11.01 2.34 -10.02 1.68 -9 1 C-7.68 1.66 -6.36 2.32 -5 3 C-4.319375 2.2575 -4.319375 2.2575 -3.625 1.5 C-2 0 -2 0 0 0 Z " fill="#44BEF5" transform="translate(225,235)"/>
<path d="M0 0 C1.40369382 2.66127825 2.45718989 5.21971224 3.2890625 8.109375 C3.50820313 8.86347656 3.72734375 9.61757812 3.953125 10.39453125 C4.17484375 11.17183594 4.3965625 11.94914063 4.625 12.75 C4.96917969 13.93916016 4.96917969 13.93916016 5.3203125 15.15234375 C5.88365481 17.10056923 6.44229292 19.05015388 7 21 C6 22 6 22 3.0625 22.1875 C0 22 0 22 -2 20 C-2.66 17.69 -3.32 15.38 -4 13 C-8.95 12.67 -13.9 12.34 -19 12 C-19 11.67 -19 11.34 -19 11 C-13.72 11 -8.44 11 -3 11 C-2.01 12.98 -1.02 14.96 0 17 C1.19988045 11.71800407 1.19988045 11.71800407 -1 7 C-1.66 6.34 -2.32 5.68 -3 5 C-3 4.01 -3 3.02 -3 2 C-2.01 1.34 -1.02 0.68 0 0 Z " fill="#0A2253" transform="translate(318,233)"/>
<path d="M0 0 C1.23556641 0.01740234 1.23556641 0.01740234 2.49609375 0.03515625 C3.32238281 0.04417969 4.14867187 0.05320313 5 0.0625 C5.63808594 0.07410156 6.27617187 0.08570313 6.93359375 0.09765625 C6.93359375 0.75765625 6.93359375 1.41765625 6.93359375 2.09765625 C4.62359375 2.09765625 2.31359375 2.09765625 -0.06640625 2.09765625 C-0.06640625 3.74765625 -0.06640625 5.39765625 -0.06640625 7.09765625 C2.24359375 7.09765625 4.55359375 7.09765625 6.93359375 7.09765625 C6.93359375 8.08765625 6.93359375 9.07765625 6.93359375 10.09765625 C4.62359375 10.09765625 2.31359375 10.09765625 -0.06640625 10.09765625 C-0.06640625 11.41765625 -0.06640625 12.73765625 -0.06640625 14.09765625 C2.24359375 14.09765625 4.55359375 14.09765625 6.93359375 14.09765625 C6.93359375 15.08765625 6.93359375 16.07765625 6.93359375 17.09765625 C5.45452483 17.12454841 3.97531892 17.14400246 2.49609375 17.16015625 C1.26052734 17.17755859 1.26052734 17.17755859 0 17.1953125 C-2.06640625 17.09765625 -2.06640625 17.09765625 -3.06640625 16.09765625 C-3.16615657 13.58629521 -3.20522808 11.1086221 -3.19140625 8.59765625 C-3.19527344 7.89511719 -3.19914062 7.19257813 -3.203125 6.46875 C-3.19095169 0.15080112 -3.19095169 0.15080112 0 0 Z " fill="#162A52" transform="translate(296.06640625,187.90234375)"/>
<path d="M0 0 C6.8359375 -0.1953125 6.8359375 -0.1953125 9 0 C11 2 11 2 11.1875 4.9375 C11 8 11 8 10 11 C10.27571139 13.00875442 10.60235737 15.01178687 11 17 C10.34 17 9.68 17 9 17 C7.5393715 14.35261084 7 13.10551666 7 10 C5.35 10 3.7 10 2 10 C2 12.31 2 14.62 2 17 C1.34 17 0.68 17 0 17 C0 11.39 0 5.78 0 0 Z M2 2 C2 3.65 2 5.3 2 7 C4.31 7 6.62 7 9 7 C9 5.68 9 4.36 9 3 C6.69 2.67 4.38 2.34 2 2 Z " fill="#162750" transform="translate(309,188)"/>
<path d="M0 0 C7.91909556 2.45765035 15.41985296 5.66818573 23 9 C21.02 9.99 21.02 9.99 19 11 C18.34 10.34 17.68 9.68 17 9 C15.0068433 8.97624074 15.0068433 8.97624074 12.875 9.375 C11.59625 9.58125 10.3175 9.7875 9 10 C9.33 9.01 9.66 8.02 10 7 C8.68 7.33 7.36 7.66 6 8 C6.33 9.98 6.66 11.96 7 14 C3.94998169 10.33997803 0 4.92148529 0 0 Z " fill="#0B2659" transform="translate(47,224)"/>
<path d="M0 0 C1.22589844 0.01353516 1.22589844 0.01353516 2.4765625 0.02734375 C3.41628906 0.04474609 3.41628906 0.04474609 4.375 0.0625 C4.375 0.7225 4.375 1.3825 4.375 2.0625 C1.735 2.3925 -0.905 2.7225 -3.625 3.0625 C-3.955 4.3825 -4.285 5.7025 -4.625 7.0625 C-3.696875 7.000625 -2.76875 6.93875 -1.8125 6.875 C1.375 7.0625 1.375 7.0625 3.25 8.25 C4.77184676 10.70186422 4.81066323 12.23068902 4.375 15.0625 C1.28611478 17.12175681 0.66564073 17.3015374 -2.8125 17.1875 C-4.070625 17.14625 -5.32875 17.105 -6.625 17.0625 C-6.625 16.0725 -6.625 15.0825 -6.625 14.0625 C-3.985 14.0625 -1.345 14.0625 1.375 14.0625 C1.375 12.7425 1.375 11.4225 1.375 10.0625 C0.42625 10.083125 -0.5225 10.10375 -1.5 10.125 C-4.625 10.0625 -4.625 10.0625 -6.625 9.0625 C-6.625 6.4225 -6.625 3.7825 -6.625 1.0625 C-4.21954362 -0.14022819 -2.67503047 -0.03821472 0 0 Z " fill="#1A2D5A" transform="translate(332.625,187.9375)"/>
<path d="M0 0 C3.96 0.33 7.92 0.66 12 1 C12 1.33 12 1.66 12 2 C8.37 2 4.74 2 1 2 C1 5.96 1 9.92 1 14 C4.96 14 8.92 14 13 14 C13 14.33 13 14.66 13 15 C8.545 15.495 8.545 15.495 4 16 C3.67 17.65 3.34 19.3 3 21 C2.34 21 1.68 21 1 21 C1 27.27 1 33.54 1 40 C0.67 40 0.34 40 0 40 C-0.06058594 38.79601562 -0.12117187 37.59203125 -0.18359375 36.3515625 C-0.26799732 34.77602923 -0.35264541 33.20050904 -0.4375 31.625 C-0.47681641 30.8309375 -0.51613281 30.036875 -0.55664062 29.21875 C-0.68893404 24.97398779 -0.68893404 24.97398779 -2 21 C-2.66 21 -3.32 21 -4 21 C-4.33 21.66 -4.66 22.32 -5 23 C-5 22.01 -5 21.02 -5 20 C-4.34 20 -3.68 20 -3 20 C-3 19.01 -3 18.02 -3 17 C-2.34 16.34 -1.68 15.68 -1 15 C-0.69400937 12.43083343 -0.48912913 9.95241616 -0.375 7.375 C-0.33632812 6.66859375 -0.29765625 5.9621875 -0.2578125 5.234375 C-0.16352276 3.49001476 -0.08067109 1.74504309 0 0 Z " fill="#54BCED" transform="translate(187,214)"/>
<path d="M0 0 C1.21816406 0.03480469 1.21816406 0.03480469 2.4609375 0.0703125 C3.68683594 0.09738281 3.68683594 0.09738281 4.9375 0.125 C5.87722656 0.15980469 5.87722656 0.15980469 6.8359375 0.1953125 C6.8359375 0.8553125 6.8359375 1.5153125 6.8359375 2.1953125 C2.3809375 2.6903125 2.3809375 2.6903125 -2.1640625 3.1953125 C-2.1640625 4.5153125 -2.1640625 5.8353125 -2.1640625 7.1953125 C-1.0503125 7.1540625 0.0634375 7.1128125 1.2109375 7.0703125 C4.8359375 7.1953125 4.8359375 7.1953125 6.8359375 9.1953125 C7.0859375 12.1953125 7.0859375 12.1953125 6.8359375 15.1953125 C4.8359375 17.1953125 4.8359375 17.1953125 2.671875 17.390625 C1.85976562 17.36742187 1.04765625 17.34421875 0.2109375 17.3203125 C-0.60632813 17.30226562 -1.42359375 17.28421875 -2.265625 17.265625 C-2.89210937 17.24242187 -3.51859375 17.21921875 -4.1640625 17.1953125 C-3.6690625 15.7103125 -3.6690625 15.7103125 -3.1640625 14.1953125 C-0.5240625 14.1953125 2.1159375 14.1953125 4.8359375 14.1953125 C4.8359375 12.8753125 4.8359375 11.5553125 4.8359375 10.1953125 C3.44375 10.2571875 3.44375 10.2571875 2.0234375 10.3203125 C-1.1640625 10.1953125 -1.1640625 10.1953125 -4.1640625 8.1953125 C-4.4765625 5.1953125 -4.4765625 5.1953125 -4.1640625 2.1953125 C-2.1640625 0.1953125 -2.1640625 0.1953125 0 0 Z " fill="#1C3258" transform="translate(186.1640625,187.8046875)"/>
<path d="M0 0 C0.99 0.33 1.98 0.66 3 1 C4.16796875 3.8359375 4.16796875 3.8359375 5.1875 7.375 C5.53167969 8.53773438 5.87585938 9.70046875 6.23046875 10.8984375 C7 14 7 14 7 17 C6.01 16.67 5.02 16.34 4 16 C4 14.68 4 13.36 4 12 C2.02 12 0.04 12 -2 12 C-2.33 13.65 -2.66 15.3 -3 17 C-3.66 17 -4.32 17 -5 17 C-3.96232949 10.93267948 -2.66038099 5.5626148 0 0 Z M0 5 C-0.33 6.65 -0.66 8.3 -1 10 C0.32 9.67 1.64 9.34 3 9 C2.34 7.68 1.68 6.36 1 5 C0.67 5 0.34 5 0 5 Z " fill="#1A2F54" transform="translate(137,188)"/>
<path d="M0 0 C0.66 0 1.32 0 2 0 C2 0.66 2 1.32 2 2 C2.886875 1.835 3.77375 1.67 4.6875 1.5 C7.53596892 1.07004243 10.13004802 0.91558965 13 1 C13 1.99 13 2.98 13 4 C11.02 4.33 9.04 4.66 7 5 C7.99 5 8.98 5 10 5 C10.99 5 11.98 5 13 5 C12.34 6.32 11.68 7.64 11 9 C9.68 9 8.36 9 7 9 C7.33 10.32 7.66 11.64 8 13 C7.34 13 6.68 13 6 13 C5.34 10.69 4.68 8.38 4 6 C2.68 6 1.36 6 0 6 C0 4.02 0 2.04 0 0 Z " fill="#47BCF5" transform="translate(212,226)"/>
<path d="M0 0 C1.65 0 3.3 0 5 0 C4.67 1.65 4.34 3.3 4 5 C3.01 5.33 2.02 5.66 1 6 C1.99 7.65 2.98 9.3 4 11 C3.34 11 2.68 11 2 11 C1.34 12.98 0.68 14.96 0 17 C-1.32 16.67 -2.64 16.34 -4 16 C-3.39891424 10.34979382 -1.92471317 5.33835539 0 0 Z " fill="#4AC0F7" transform="translate(127,219)"/>
<path d="M0 0 C3.29159316 -0.05790353 6.58305603 -0.09356261 9.875 -0.125 C10.81214844 -0.14175781 11.74929688 -0.15851563 12.71484375 -0.17578125 C13.61074219 -0.18222656 14.50664062 -0.18867188 15.4296875 -0.1953125 C16.25710449 -0.20578613 17.08452148 -0.21625977 17.93701172 -0.22705078 C20 0 20 0 22 2 C22 3.65 22 5.3 22 7 C16.39 7 10.78 7 5 7 C5 6.67 5 6.34 5 6 C9.95 6 14.9 6 20 6 C20 4.68 20 3.36 20 2 C18.97519531 2.08378906 17.95039063 2.16757813 16.89453125 2.25390625 C15.53388121 2.35712798 14.17320254 2.45997265 12.8125 2.5625 C11.80219727 2.64661133 11.80219727 2.64661133 10.77148438 2.73242188 C6.982869 3.00963763 3.68172206 2.96511161 0 2 C0 1.34 0 0.68 0 0 Z " fill="#0C2352" transform="translate(438,209)"/>
<path d="M0 0 C2.97 0 5.94 0 9 0 C10.92442262 4.90727769 12.64489592 9.85347647 14.25 14.875 C14.78367187 16.54175781 14.78367187 16.54175781 15.328125 18.2421875 C16 21 16 21 15 23 C13.68 20.36 12.36 17.72 11 15 C8.48916886 16.25541557 8.12874554 17.50063488 7 20 C6.67 17.69 6.34 15.38 6 13 C7.65 13 9.3 13 11 13 C10.60246179 11.53633658 10.18118616 10.0791065 9.75 8.625 C9.40195312 7.40683594 9.40195312 7.40683594 9.046875 6.1640625 C7.76470295 3.51360237 6.73554796 2.96486382 4 2 C3.34 2 2.68 2 2 2 C2 2.66 2 3.32 2 4 C1.01 4 0.02 4 -1 4 C-0.67 2.68 -0.34 1.36 0 0 Z " fill="#0F2552" transform="translate(302,209)"/>
<path d="M0 0 C2.0625 1 2.0625 1 3.8125 4.3125 C5.0625 8 5.0625 8 5.0625 12 C3.7425 12.33 2.4225 12.66 1.0625 13 C0.4025 11.02 -0.2575 9.04 -0.9375 7 C-1.9275 7.33 -2.9175 7.66 -3.9375 8 C-4.5975 6.35 -5.2575 4.7 -5.9375 3 C-5.2775 3 -4.6175 3 -3.9375 3 C-3.9375 2.34 -3.9375 1.68 -3.9375 1 C-1.9375 0 -1.9375 0 0 0 Z " fill="#021E5C" transform="translate(307.9375,210)"/>
<path d="M0 0 C1.31538327 4.15771494 0.34433068 6.8879297 -1 11 C0.32 11 1.64 11 3 11 C3.66 9.35 4.32 7.7 5 6 C6 9 6 9 5 12 C7.64 12.33 10.28 12.66 13 13 C9.52728445 15.3151437 8.07260203 15.25453763 4 15 C3.01 14.67 2.02 14.34 1 14 C0.54625 14.495 0.0925 14.99 -0.375 15.5 C-2 17 -2 17 -4 17 C-4.33 17.99 -4.66 18.98 -5 20 C-4.35346673 13.04976736 -2.13972752 6.61822697 0 0 Z " fill="#58B7E3" transform="translate(124,224)"/>
<path d="M0 0 C1.65 0.33 3.3 0.66 5 1 C5 1.66 5 2.32 5 3 C6.32 3.33 7.64 3.66 9 4 C8.01 4.99 7.02 5.98 6 7 C5.67 6.67 5.34 6.34 5 6 C5 7.32 5 8.64 5 10 C2.69 10.33 0.38 10.66 -2 11 C-1.7215625 10.1028125 -1.7215625 10.1028125 -1.4375 9.1875 C-0.77906313 6.83591238 -0.77906313 6.83591238 -2 4 C-1.0625 1.8125 -1.0625 1.8125 0 0 Z " fill="#153F57" transform="translate(230,226)"/>
<path d="M0 0 C3.7910119 1.44950455 7.3874638 3.15172566 11 5 C11 3.35 11 1.7 11 0 C14.95677402 1.67401978 17.84464213 4.13149285 21 7 C21 7.66 21 8.32 21 9 C13.77197069 8.65025665 8.10522972 6.99321263 2 3 C1.34 2.01 0.68 1.02 0 0 Z " fill="#0D2453" transform="translate(121,274)"/>
<path d="M0 0 C0.66 0.66 1.32 1.32 2 2 C3.32 1.34 4.64 0.68 6 0 C6.66 0.66 7.32 1.32 8 2 C6.09145173 6.5202459 4.60150785 9.04435916 0 11 C-0.99 10.67 -1.98 10.34 -3 10 C-2.01 6.7 -1.02 3.4 0 0 Z " fill="#51B9EC" transform="translate(118,244)"/>
<path d="M0 0 C0.66 0 1.32 0 2 0 C2.27615058 1.59987236 2.52007625 3.205333 2.75 4.8125 C2.88921875 5.70582031 3.0284375 6.59914062 3.171875 7.51953125 C3 10 3 10 1.5 11.8125 C-1.91559745 13.43490879 -5.05694325 13.32363347 -8.75 13.1875 C-9.44738281 13.17396484 -10.14476562 13.16042969 -10.86328125 13.14648438 C-12.57585541 13.1112945 -14.28802941 13.05749155 -16 13 C-16 13.66 -16 14.32 -16 15 C-17.32 15 -18.64 15 -20 15 C-20 15.66 -20 16.32 -20 17 C-19.34 17.33 -18.68 17.66 -18 18 C-18.99 18 -19.98 18 -21 18 C-21 16.02 -21 14.04 -21 12 C-18.76292333 10.88146167 -17.38623604 10.82080917 -14.90234375 10.71875 C-14.10119141 10.68136719 -13.30003906 10.64398438 -12.47460938 10.60546875 C-10.77930361 10.53499415 -9.08399106 10.46468239 -7.38867188 10.39453125 C-3.3690936 10.60207038 -3.3690936 10.60207038 0 9 C0.07179964 7.48071962 0.08392007 5.95832518 0.0625 4.4375 C0.05347656 3.61121094 0.04445313 2.78492188 0.03515625 1.93359375 C0.02355469 1.29550781 0.01195312 0.65742188 0 0 Z " fill="#0B2656" transform="translate(451,236)"/>
<path d="M0 0 C0.33 0 0.66 0 1 0 C1 12.54 1 25.08 1 38 C5.627322 38.372678 5.627322 38.372678 8 37 C8 38.65 8 40.3 8 42 C2.25 41.25 2.25 41.25 0 39 C-0.17539436 36.05903263 -0.23132375 33.21346651 -0.1953125 30.2734375 C-0.1924826 29.41062164 -0.18965271 28.54780579 -0.18673706 27.65884399 C-0.17552333 24.8974228 -0.15041684 22.1363235 -0.125 19.375 C-0.11497173 17.50521301 -0.10584562 15.63542095 -0.09765625 13.765625 C-0.07558012 9.17695891 -0.04104234 4.58853407 0 0 Z " fill="#0B204E" transform="translate(390,213)"/>
<path d="M0 0 C1.134375 0.020625 2.26875 0.04125 3.4375 0.0625 C3.4375 1.0525 3.4375 2.0425 3.4375 3.0625 C-1.3125 4.1875 -1.3125 4.1875 -3.5625 3.0625 C-3.5625 12.3025 -3.5625 21.5425 -3.5625 31.0625 C-3.8925 31.0625 -4.2225 31.0625 -4.5625 31.0625 C-5.45128253 27.31673246 -5.63089093 23.98236604 -5.4765625 20.140625 C-5.43273437 19.03332031 -5.38890625 17.92601562 -5.34375 16.78515625 C-5.2921875 15.63917969 -5.240625 14.49320313 -5.1875 13.3125 C-5.14367187 12.15105469 -5.09984375 10.98960937 -5.0546875 9.79296875 C-4.64578376 0.08150498 -4.64578376 0.08150498 0 0 Z " fill="#123C6F" transform="translate(260.5625,208.9375)"/>
<path d="M0 0 C0 2 0 2 -1.5 3.625 C-1.995 4.07875 -2.49 4.5325 -3 5 C-1.68 6.32 -0.36 7.64 1 9 C0.34 9.66 -0.32 10.32 -1 11 C0.65 11.99 2.3 12.98 4 14 C3.67 14.66 3.34 15.32 3 16 C0.125 15.375 0.125 15.375 -3 14 C-4.28094905 11.20520208 -5 9.07491161 -5 6 C-6.65 6.66 -8.3 7.32 -10 8 C-9.04578192 6.85073734 -8.08647955 5.70569459 -7.125 4.5625 C-6.59132812 3.92441406 -6.05765625 3.28632813 -5.5078125 2.62890625 C-3.68057607 0.65492285 -2.70796331 0 0 0 Z " fill="#54BCE9" transform="translate(224,211)"/>
<path d="M0 0 C0.33 0 0.66 0 1 0 C1.33 4.29 1.66 8.58 2 13 C-0.97 12.01 -3.94 11.02 -7 10 C-6.34 8.35 -5.68 6.7 -5 5 C-4.01 5 -3.02 5 -2 5 C-1.34 3.35 -0.68 1.7 0 0 Z " fill="#4EBDF0" transform="translate(86,223)"/>
<path d="M0 0 C5.45593671 1.60676453 10.3302147 4.05030894 15.375 6.625 C16.20644531 7.04523438 17.03789063 7.46546875 17.89453125 7.8984375 C19.93156359 8.92866075 21.96662189 9.96258821 24 11 C21 12 21 12 19.1328125 11.22265625 C18.47023438 10.83980469 17.80765625 10.45695313 17.125 10.0625 C13.91536095 8.33924361 11.71498098 7.53562738 8 8 C8 7.34 8 6.68 8 6 C7.34 6 6.68 6 6 6 C5.67 6.66 5.34 7.32 5 8 C4.87625 7.071875 4.87625 7.071875 4.75 6.125 C4.18741541 3.81562433 4.18741541 3.81562433 1.9375 2.75 C1.298125 2.5025 0.65875 2.255 0 2 C0 1.34 0 0.68 0 0 Z " fill="#57B3DF" transform="translate(40,190)"/>
<path d="M0 0 C3.63 0 7.26 0 11 0 C11 0.66 11 1.32 11 2 C9.68 2 8.36 2 7 2 C7 6.95 7 11.9 7 17 C6.34 17 5.68 17 5 17 C5 12.05 5 7.1 5 2 C3.35 2 1.7 2 0 2 C0 1.34 0 0.68 0 0 Z " fill="#142E53" transform="translate(165,188)"/>
<path d="M0 0 C3.63 0 7.26 0 11 0 C11 0.66 11 1.32 11 2 C9.35 2 7.7 2 6 2 C6 6.95 6 11.9 6 17 C5.34 17 4.68 17 4 17 C4 12.05 4 7.1 4 2 C2.68 2 1.36 2 0 2 C0 1.34 0 0.68 0 0 Z " fill="#162B50" transform="translate(269,188)"/>
<path d="M0 0 C0.99 0 1.98 0 3 0 C3.66 1.65 4.32 3.3 5 5 C5.66 5 6.32 5 7 5 C6.34 6.65 5.68 8.3 5 10 C4.67 9.01 4.34 8.02 4 7 C3.01 7 2.02 7 1 7 C1 6.34 1 5.68 1 5 C-2.465 6.485 -2.465 6.485 -6 8 C-6 7.34 -6 6.68 -6 6 C-4.68 5.67 -3.36 5.34 -2 5 C-2 4.01 -2 3.02 -2 2 C-1.34 2 -0.68 2 0 2 C0 1.34 0 0.68 0 0 Z " fill="#4BB3E6" transform="translate(246,237)"/>
<path d="M0 0 C0.66 0 1.32 0 2 0 C2 5.61 2 11.22 2 17 C1.01 17 0.02 17 -1 17 C-1.02684679 14.35409986 -1.04676357 11.70846904 -1.0625 9.0625 C-1.07087891 8.30775391 -1.07925781 7.55300781 -1.08789062 6.77539062 C-1.09652441 4.85005687 -1.05224333 2.92464419 -1 1 C-0.67 0.67 -0.34 0.34 0 0 Z " fill="#14274E" transform="translate(286,188)"/>
<path d="M0 0 C0.99 0 1.98 0 3 0 C2.7834375 0.8353125 2.7834375 0.8353125 2.5625 1.6875 C1.71225861 5.18293681 1 8.3909736 1 12 C0.68911632 13.67099977 0.35919668 15.33871537 0 17 C-3 15 -3 15 -3.8125 13.25 C-4.19879521 8.61445751 -1.73738361 4.2193602 0 0 Z " fill="#184170" transform="translate(228,223)"/>
<path d="M0 0 C0 0.66 0 1.32 0 2 C0.66 2.33 1.32 2.66 2 3 C2 3.66 2 4.32 2 5 C6.95 5 11.9 5 17 5 C11.74507587 7.62746206 7.81688139 7.86172995 2.29296875 6.171875 C-4.7675885 3.46482301 -4.7675885 3.46482301 -6 1 C-3 0 -3 0 0 0 Z " fill="#5EBBE6" transform="translate(224,248)"/>
<path d="M0 0 C0.66 0 1.32 0 2 0 C1.67 1.98 1.34 3.96 1 6 C1.66 6 2.32 6 3 6 C3 5.01 3 4.02 3 3 C3.99 3 4.98 3 6 3 C6 4.32 6 5.64 6 7 C8.64 6.67 11.28 6.34 14 6 C13.67 6.66 13.34 7.32 13 8 C11.04233719 8.08082094 9.08373272 8.13910778 7.125 8.1875 C6.03445312 8.22230469 4.94390625 8.25710937 3.8203125 8.29296875 C2.88960937 8.19628906 1.95890625 8.09960938 1 8 C-1 5 -1 5 -0.625 2.3125 C-0.41875 1.549375 -0.2125 0.78625 0 0 Z " fill="#58A9D5" transform="translate(225,239)"/>
<path d="M0 0 C2 2 2 2 3 7 C-2.28 6.67 -7.56 6.34 -13 6 C-13 5.34 -13 4.68 -13 4 C-7.06 3.505 -7.06 3.505 -1 3 C-0.67 2.01 -0.34 1.02 0 0 Z " fill="#5FBFEA" transform="translate(139,239)"/>
<path d="M0 0 C0.33 0 0.66 0 1 0 C1 1.65 1 3.3 1 5 C3.31 5.66 5.62 6.32 8 7 C7.67 7.66 7.34 8.32 7 9 C5.68 8.67 4.36 8.34 3 8 C3 10.31 3 12.62 3 15 C2.01 14.67 1.02 14.34 0 14 C0 9.38 0 4.76 0 0 Z " fill="#0D344F" transform="translate(148,190)"/>
<path d="M0 0 C3.91211733 1.15585285 6.8745041 2.35534962 10 5 C8.35 5 6.7 5 5 5 C5 6.98 5 8.96 5 11 C0 4.63636364 0 4.63636364 0 0 Z " fill="#53BAED" transform="translate(28,184)"/>
<path d="M0 0 C8.20398406 -0.47330677 8.20398406 -0.47330677 11.3125 1.375 C11.869375 1.91125 12.42625 2.4475 13 3 C14.31836295 3.69580267 15.64791086 4.37224433 17 5 C17 5.66 17 6.32 17 7 C11.14340094 5.33846988 5.5409866 3.52958084 0 1 C0 0.67 0 0.34 0 0 Z " fill="#58B7E2" transform="translate(61,225)"/>
<path d="M0 0 C0.66 0.33 1.32 0.66 2 1 C1.67 2.65 1.34 4.3 1 6 C2.32 5.67 3.64 5.34 5 5 C5 5.66 5 6.32 5 7 C2.87561661 7.08078641 0.7503677 7.13909141 -1.375 7.1875 C-2.55835938 7.22230469 -3.74171875 7.25710937 -4.9609375 7.29296875 C-6.46527344 7.14794922 -6.46527344 7.14794922 -8 7 C-8.66 6.01 -9.32 5.02 -10 4 C-7.36 4.33 -4.72 4.66 -2 5 C-1.855625 4.360625 -1.71125 3.72125 -1.5625 3.0625 C-1 1 -1 1 0 0 Z " fill="#112A58" transform="translate(290,248)"/>
<path d="M0 0 C0.66 0 1.32 0 2 0 C1.42655063 2.86724686 1.1385485 3.8614515 -1 6 C-1 7.32 -1 8.64 -1 10 C-1.99 10.495 -1.99 10.495 -3 11 C-3.66 10.34 -4.32 9.68 -5 9 C-5 8.67 -5 8.34 -5 8 C-5.32380126 6.66431979 -5.65657551 5.33076989 -6 4 C-5.195625 3.525625 -4.39125 3.05125 -3.5625 2.5625 C-1.15246512 1.23099846 -1.15246512 1.23099846 0 0 Z " fill="#4EBBEA" transform="translate(223,235)"/>
<path d="M0 0 C0.33 0.99 0.66 1.98 1 3 C-1.70879335 4.35439668 -4.00933268 4.06501451 -7 4 C-5.35 4.99 -3.7 5.98 -2 7 C-2.33 7.66 -2.66 8.32 -3 9 C-5.31 8.67 -7.62 8.34 -10 8 C-9.67 6.35 -9.34 4.7 -9 3 C-9.66 2.67 -10.32 2.34 -11 2 C-7.37 2 -3.74 2 0 2 C0 1.34 0 0.68 0 0 Z " fill="#4CC3FB" transform="translate(200,227)"/>
<path d="M0 0 C0.99 0 1.98 0 3 0 C3.66 0.66 4.32 1.32 5 2 C5.33 2 5.66 2 6 2 C6 3.65 6 5.3 6 7 C4.35 7 2.7 7 1 7 C-0.0625 4.625 -0.0625 4.625 -1 2 C-0.67 1.34 -0.34 0.68 0 0 Z " fill="#4EC0F5" transform="translate(201,246)"/>
<path d="M0 0 C0.99 0.33 1.98 0.66 3 1 C5.00875442 0.72428861 7.01178687 0.39764263 9 0 C8.67 0.99 8.34 1.98 8 3 C5.4375 4.1875 5.4375 4.1875 3 5 C3 5.33 3 5.66 3 6 C1.35 6 -0.3 6 -2 6 C-1.34 4.02 -0.68 2.04 0 0 Z " fill="#183D66" transform="translate(238,229)"/>
<path d="M0 0 C0.99 0 1.98 0 3 0 C4.35384615 7.38461538 4.35384615 7.38461538 2.5625 10.5 C2.046875 10.995 1.53125 11.49 1 12 C-0.125 7.25 -0.125 7.25 1 5 C0.34 5 -0.32 5 -1 5 C-0.67 3.35 -0.34 1.7 0 0 Z M-2 8 C0 9 0 9 0 9 Z " fill="#47C0F9" transform="translate(135,210)"/>
<path d="M0 0 C2.4320057 1.21600285 4.7272325 2.50475822 7 4 C7 4.66 7 5.32 7 6 C7.99 5.67 8.98 5.34 10 5 C10 5.99 10 6.98 10 8 C5.0276578 6.50829734 0.58154261 4.39542583 -4 2 C-2.125 0.9375 -2.125 0.9375 0 0 Z " fill="#0D2B5F" transform="translate(68,195)"/>
<path d="M0 0 C1.19354869 3.72983966 1.40965996 7.10823039 1 11 C-1.5 13.9375 -1.5 13.9375 -4 16 C-2.98408579 10.53135543 -1.92908943 5.23609987 0 0 Z " fill="#0D2353" transform="translate(299,217)"/>
<path d="M0 0 C0.33 0.66 0.66 1.32 1 2 C1.66 2.33 2.32 2.66 3 3 C2.67 5.64 2.34 8.28 2 11 C0.35 10.67 -1.3 10.34 -3 10 C-3 9.34 -3 8.68 -3 8 C-2.34 8 -1.68 8 -1 8 C-0.67 5.36 -0.34 2.72 0 0 Z " fill="#102954" transform="translate(216,194)"/>
<path d="M0 0 C1.23556641 0.01740234 1.23556641 0.01740234 2.49609375 0.03515625 C3.32238281 0.04417969 4.14867187 0.05320313 5 0.0625 C5.63808594 0.07410156 6.27617187 0.08570313 6.93359375 0.09765625 C6.93359375 0.75765625 6.93359375 1.41765625 6.93359375 2.09765625 C4.62359375 2.09765625 2.31359375 2.09765625 -0.06640625 2.09765625 C-0.06640625 3.74765625 -0.06640625 5.39765625 -0.06640625 7.09765625 C-0.72640625 7.09765625 -1.38640625 7.09765625 -2.06640625 7.09765625 C-2.44773924 5.10625065 -2.77966207 3.10486548 -3.06640625 1.09765625 C-2.06640625 0.09765625 -2.06640625 0.09765625 0 0 Z " fill="#1B2B58" transform="translate(151.06640625,187.90234375)"/>
<path d="M0 0 C1.86610926 2.79916389 2.68785383 4.81938269 3.625 8 C4.01558594 9.299375 4.01558594 9.299375 4.4140625 10.625 C5 13 5 13 5 16 C3.68 15.67 2.36 15.34 1 15 C1.020625 13.824375 1.04125 12.64875 1.0625 11.4375 C1.06947261 7.52586533 0.64250343 3.85502056 0 0 Z " fill="#5DB5E4" transform="translate(144,230)"/>
<path d="M0 0 C0.33 0.99 0.66 1.98 1 3 C3.00016466 4.20882096 3.00016466 4.20882096 5 5 C5 5.66 5 6.32 5 7 C4.34 7 3.68 7 3 7 C3 6.34 3 5.68 3 5 C2.01 5 1.02 5 0 5 C0.99 6.65 1.98 8.3 3 10 C2.01 10.33 1.02 10.66 0 11 C0 10.34 0 9.68 0 9 C-0.66 9 -1.32 9 -2 9 C-1.125 1.125 -1.125 1.125 0 0 Z " fill="#4FA1D3" transform="translate(227,213)"/>
<path d="M0 0 C3.99500618 1.3697164 6.80009492 3.25722422 10 6 C9.67 6.99 9.34 7.98 9 9 C8.401875 8.360625 7.80375 7.72125 7.1875 7.0625 C5.09189663 4.79689611 5.09189663 4.79689611 2 4 C2 3.34 2 2.68 2 2 C1.34 2 0.68 2 0 2 C0 1.34 0 0.68 0 0 Z " fill="#5BB7E5" transform="translate(74,207)"/>
<path d="M0 0 C0.66 0 1.32 0 2 0 C2.33 1.98 2.66 3.96 3 6 C2.34 6 1.68 6 1 6 C0.34 7.32 -0.32 8.64 -1 10 C-1.66 9.67 -2.32 9.34 -3 9 C-2.01 6.03 -1.02 3.06 0 0 Z " fill="#142954" transform="translate(137,188)"/>
<path d="M0 0 C2.44839588 3.67259383 4 6.54648201 4 11 C1.69 10.67 -0.62 10.34 -3 10 C-1.68 9.67 -0.36 9.34 1 9 C0.67 6.03 0.34 3.06 0 0 Z " fill="#61B8E0" transform="translate(206,244)"/>
<path d="M0 0 C2.9719385 1.12451727 5.33440687 2.22293791 8 4 C8.29296875 6.1640625 8.29296875 6.1640625 8.1875 8.625 C8.16042969 9.44226563 8.13335937 10.25953125 8.10546875 11.1015625 C8.07066406 11.72804687 8.03585938 12.35453125 8 13 C7.67 13 7.34 13 7 13 C6.87625 12.030625 6.7525 11.06125 6.625 10.0625 C6.315625 8.5465625 6.315625 8.5465625 6 7 C5.34 6.67 4.68 6.34 4 6 C4 5.01 4 4.02 4 3 C2.68 2.67 1.36 2.34 0 2 C0 1.34 0 0.68 0 0 Z " fill="#0F2455" transform="translate(96,197)"/>
<path d="M0 0 C-0.66 1.32 -1.32 2.64 -2 4 C-3.32 4 -4.64 4 -6 4 C-5.67 5.32 -5.34 6.64 -5 8 C-5.66 8 -6.32 8 -7 8 C-7 6.02 -7 4.04 -7 2 C-4.35261084 0.5393715 -3.10551666 0 0 0 Z " fill="#5DA9DA" transform="translate(225,231)"/>
<path d="M0 0 C2.16874252 0.50603992 3.99967627 0.99983813 6 2 C6 2.99 6 3.98 6 5 C4.35 5 2.7 5 1 5 C0.67 3.35 0.34 1.7 0 0 Z " fill="#092152" transform="translate(370,250)"/>
<path d="M0 0 C2.31 0 4.62 0 7 0 C6.525625 0.763125 6.05125 1.52625 5.5625 2.3125 C3.89893903 4.96410548 3.89893903 4.96410548 3 8 C0 2.25 0 2.25 0 0 Z " fill="#58B9EE" transform="translate(33,196)"/>
<path d="M0 0 C1.67299959 0.65061095 3.33859237 1.32033324 5 2 C5.7425 2.28875 6.485 2.5775 7.25 2.875 C9 4 9 4 9.75 6.125 C9.87375 7.053125 9.87375 7.053125 10 8 C6.05205855 6.32971708 3.18203882 3.8204435 0 1 C0 0.67 0 0.34 0 0 Z " fill="#0E2554" transform="translate(44,182)"/>
<path d="M0 0 C2.31 0 4.62 0 7 0 C7 0.99 7 1.98 7 3 C4.69 3.33 2.38 3.66 0 4 C0 2.68 0 1.36 0 0 Z " fill="#51A4C8" transform="translate(218,227)"/>
<path d="M0 0 C0 0.99 0 1.98 0 3 C-2.3125 4.75 -2.3125 4.75 -5 6 C-5.99 5.67 -6.98 5.34 -8 5 C-7.34 3.68 -6.68 2.36 -6 1 C-6 1.66 -6 2.32 -6 3 C-4.68 3 -3.36 3 -2 3 C-2 2.34 -2 1.68 -2 1 C-1.34 0.67 -0.68 0.34 0 0 Z " fill="#52B2D5" transform="translate(123,249)"/>
<path d="M0 0 C2 3 2 3 2 6 C-2.455 5.01 -2.455 5.01 -7 4 C-3 3 -3 3 -1 4 C-0.67 2.68 -0.34 1.36 0 0 Z " fill="#102452" transform="translate(87,248)"/>
<path d="M0 0 C3.78834395 1.26278132 4.22011278 2.52112952 6 6 C6.6875 8.3125 6.6875 8.3125 7 10 C3.60582235 6.87378374 1.3937282 4.43458973 0 0 Z " fill="#61BAE4" transform="translate(211,239)"/>
<path d="M0 0 C0.66 0.66 1.32 1.32 2 2 C1.34 3.98 0.68 5.96 0 8 C-3 6 -3 6 -3.6875 3.875 C-3.790625 3.25625 -3.89375 2.6375 -4 2 C-2.68 1.34 -1.36 0.68 0 0 Z " fill="#1F4B86" transform="translate(228,232)"/>
<path d="M0 0 C3.91211733 1.15585285 6.8745041 2.35534962 10 5 C6.14354879 5.22036864 3.50776784 4.60355101 0 3 C0 2.01 0 1.02 0 0 Z " fill="#58B2DF" transform="translate(64,202)"/>
<path d="M0 0 C3.5786304 1.65167557 6.74820188 3.78286492 10 6 C9.01 6.495 9.01 6.495 8 7 C2.5229794 4.83201268 2.5229794 4.83201268 0.625 1.8125 C0.41875 1.214375 0.2125 0.61625 0 0 Z " fill="#0B2653" transform="translate(42,159)"/>
<path d="M0 0 C1.31223496 3.93670488 0.24296256 6.12488144 -1 10 C-1.66 9.67 -2.32 9.34 -3 9 C-3 8.34 -3 7.68 -3 7 C-3.66 6.67 -4.32 6.34 -5 6 C-3.68 5.67 -2.36 5.34 -1 5 C-0.67 3.35 -0.34 1.7 0 0 Z " fill="#58B5E7" transform="translate(132,219)"/>
<path d="M0 0 C1.98 0 3.96 0 6 0 C6 0.99 6 1.98 6 3 C3 4 3 4 0.8125 3.0625 C0.214375 2.711875 -0.38375 2.36125 -1 2 C-0.67 1.34 -0.34 0.68 0 0 Z " fill="#42C3FB" transform="translate(228,214)"/>
<path d="M0 0 C1.32 0.33 2.64 0.66 4 1 C1.69 2.65 -0.62 4.3 -3 6 C-3.33 5.01 -3.66 4.02 -4 3 C-3.01 3 -2.02 3 -1 3 C-0.67 2.01 -0.34 1.02 0 0 Z " fill="#5BB9E8" transform="translate(246,247)"/>
<path d="M0 0 C0.99 0 1.98 0 3 0 C3.33 1.65 3.66 3.3 4 5 C2.35 5 0.7 5 -1 5 C-0.67 3.35 -0.34 1.7 0 0 Z " fill="#4DBEF9" transform="translate(200,238)"/>
<path d="M0 0 C1.9451 2.91765 2.45276317 4.62537285 3 8 C1.68 8 0.36 8 -1 8 C-0.67 5.36 -0.34 2.72 0 0 Z " fill="#56B8E6" transform="translate(141,220)"/>
<path d="M0 0 C3.465 1.485 3.465 1.485 7 3 C6.67 3.66 6.34 4.32 6 5 C4.02 4.34 2.04 3.68 0 3 C0 2.01 0 1.02 0 0 Z " fill="#4C94BD" transform="translate(221,222)"/>
<path d="M0 0 C1.98 0 3.96 0 6 0 C6 0.99 6 1.98 6 3 C4.02 3.33 2.04 3.66 0 4 C0 2.68 0 1.36 0 0 Z " fill="#0F2450" transform="translate(324,209)"/>
<path d="M0 0 C0 0.66 0 1.32 0 2 C-3.07322544 2.91058531 -5.80097361 3.08886184 -9 3 C-9 2.34 -9 1.68 -9 1 C-5.8035914 -0.06546953 -3.34252724 -0.07427838 0 0 Z " fill="#2A4B76" transform="translate(247,234)"/>
<path d="M0 0 C3.77545388 1.09068668 6.47043472 1.9083091 9 5 C3.46153846 4.50769231 3.46153846 4.50769231 1.125 1.9375 C0.75375 1.298125 0.3825 0.65875 0 0 Z " fill="#0C234D" transform="translate(432,230)"/>
<path d="M0 0 C0.33 0 0.66 0 1 0 C1.33 4.29 1.66 8.58 2 13 C0.68 12.34 -0.64 11.68 -2 11 C-1.34 11 -0.68 11 0 11 C0 7.37 0 3.74 0 0 Z " fill="#4A89C3" transform="translate(86,223)"/>
<path d="M0 0 C0.99 0.33 1.98 0.66 3 1 C2.67 3.31 2.34 5.62 2 8 C0 6 0 6 -0.125 2.875 C-0.08375 1.92625 -0.0425 0.9775 0 0 Z " fill="#2C486F" transform="translate(235,218)"/>
<path d="M0 0 C0.66 0.33 1.32 0.66 2 1 C1.34 3.31 0.68 5.62 0 8 C-0.66 8 -1.32 8 -2 8 C-1.125 1.125 -1.125 1.125 0 0 Z " fill="#1D355E" transform="translate(134,197)"/>
<path d="M0 0 C1.98 0.66 3.96 1.32 6 2 C5.01 2.33 4.02 2.66 3 3 C2.26676204 5.01508358 2.26676204 5.01508358 2 7 C0.5393715 4.35261084 0 3.10551666 0 0 Z " fill="#53ADD7" transform="translate(28,184)"/>
<path d="M0 0 C6.875 3.75 6.875 3.75 8 6 C5.69 5.67 3.38 5.34 1 5 C0.67 3.35 0.34 1.7 0 0 Z " fill="#0E2548" transform="translate(28,149)"/>
<path d="M0 0 C1.74627478 2.61941217 2.38722388 4.03824877 3 7 C1.35 7.33 -0.3 7.66 -2 8 C-1.34 5.36 -0.68 2.72 0 0 Z " fill="#0D214A" transform="translate(322,247)"/>
<path d="M0 0 C0 0.66 0 1.32 0 2 C-1.75 3.125 -1.75 3.125 -4 4 C-6.25 3.125 -6.25 3.125 -8 2 C-4.77208445 -0.1519437 -3.71599191 -0.20086443 0 0 Z " fill="#3DC1F6" transform="translate(254,234)"/>
<path d="M0 0 C0.99 0 1.98 0 3 0 C3 1.98 3 3.96 3 6 C2.01 6.33 1.02 6.66 0 7 C0 4.69 0 2.38 0 0 Z " fill="#0F223A" transform="translate(233,198)"/>
</svg>
